<svg xmlns="http://www.w3.org/2000/svg" xmlns:xlink="http://www.w3.org/1999/xlink" viewBox="0 0 340.03 445.15"><defs><style>.cls-1{isolation:isolate;}.cls-2{fill:#131719;}.cls-3{fill:#292929;}.cls-4{fill:url(#Безымянный_градиент_37);}.cls-5{fill:#666;}.cls-6{fill:url(#Безымянный_градиент_38);}.cls-7{fill:#595959;}.cls-8,.cls-9{fill:#ffa366;}.cls-34,.cls-9{mix-blend-mode:multiply;}.cls-10{fill:#ffcfb3;}.cls-11{fill:#ffbf99;}.cls-12{fill:#404040;}.cls-13{fill:#4d4d4d;}.cls-14{fill:#f8ed60;}.cls-15{fill:#f1ad2e;}.cls-16{fill:#333;}.cls-17{fill:#18171d;}.cls-18{fill:#bfbfbf;}.cls-19{fill:url(#Безымянный_градиент_66);}.cls-20{fill:url(#Безымянный_градиент_66-2);}.cls-21{fill:url(#Безымянный_градиент_66-3);}.cls-22{fill:url(#Безымянный_градиент_30);}.cls-23{fill:#1c1c1c;}.cls-24{fill:#3d3d3d;}.cls-25{fill:#d9d9d9;}.cls-26{fill:#757575;}.cls-27{fill:url(#Безымянный_градиент_65);}.cls-28{fill:url(#Безымянный_градиент_64);}.cls-29{fill:url(#Безымянный_градиент_38-2);}.cls-30{fill:url(#Безымянный_градиент_37-2);}.cls-31{fill:#1f1f1f;}.cls-32{fill:#28878b;}.cls-33{fill:#8a5589;}.cls-35{fill:#63a194;}.cls-36{fill:#8b575b;}.cls-37{fill:#874e6e;}.cls-38{fill:#fff;}</style><linearGradient id="Безымянный_градиент_37" x1="28.42" y1="277.8" x2="30.49" y2="281.41" gradientTransform="matrix(-1, 0, 0, 1, 277.82, 0)" gradientUnits="userSpaceOnUse"><stop offset="0.13" stop-color="#404040"/><stop offset="0.13" stop-color="#595959"/><stop offset="0.47" stop-color="#595959"/><stop offset="0.48" stop-color="#404040"/><stop offset="0.77" stop-color="#404040"/><stop offset="0.77" stop-color="#333"/></linearGradient><linearGradient id="Безымянный_градиент_38" x1="26" y1="279.52" x2="27.78" y2="282.61" gradientTransform="matrix(-1, 0, 0, 1, 277.82, 0)" gradientUnits="userSpaceOnUse"><stop offset="0.13" stop-color="#333"/><stop offset="0.13" stop-color="#4c4c4c"/><stop offset="0.47" stop-color="#4c4c4c"/><stop offset="0.48" stop-color="#333"/><stop offset="0.77" stop-color="#333"/><stop offset="0.77" stop-color="#262626"/></linearGradient><linearGradient id="Безымянный_градиент_66" x1="114.18" y1="225.69" x2="117.26" y2="236.21" gradientTransform="matrix(-1, 0, 0, 1, 359.31, -3.02)" gradientUnits="userSpaceOnUse"><stop offset="0.12" stop-color="#1c1c1c"/><stop offset="0.12" stop-color="#292929"/><stop offset="0.53" stop-color="#292929"/><stop offset="0.54" stop-color="#1c1c1c"/><stop offset="0.85" stop-color="#1c1c1c"/><stop offset="0.86" stop-color="#131719"/></linearGradient><linearGradient id="Безымянный_градиент_66-2" x1="120.9" y1="271.01" x2="115.29" y2="278.28" xlink:href="#Безымянный_градиент_66"/><linearGradient id="Безымянный_градиент_66-3" x1="162.42" y1="253.67" x2="151.05" y2="254.85" gradientTransform="matrix(-1, 0, 0, 1, 420.28, 0)" xlink:href="#Безымянный_градиент_66"/><linearGradient id="Безымянный_градиент_30" x1="154.54" y1="176.41" x2="144.04" y2="177.5" gradientTransform="matrix(-1, 0, 0, 1, 420.28, 0)" gradientUnits="userSpaceOnUse"><stop offset="0.13" stop-color="#a6a6a6"/><stop offset="0.13" stop-color="#bfbfbf"/><stop offset="0.47" stop-color="#bfbfbf"/><stop offset="0.48" stop-color="#a6a6a6"/><stop offset="0.77" stop-color="#a6a6a6"/><stop offset="0.77" stop-color="#999"/></linearGradient><linearGradient id="Безымянный_градиент_65" x1="104.21" y1="196.92" x2="114.36" y2="194.82" gradientTransform="matrix(-1, 0, 0, 1, 277.82, 0)" gradientUnits="userSpaceOnUse"><stop offset="0.14" stop-color="#131719"/><stop offset="0.15" stop-color="#1c1c1c"/><stop offset="0.46" stop-color="#1c1c1c"/><stop offset="0.47" stop-color="#1f1f1f"/><stop offset="0.88" stop-color="#1f1f1f"/><stop offset="0.88" stop-color="#1c1c1c"/></linearGradient><linearGradient id="Безымянный_градиент_64" x1="101.14" y1="189.76" x2="114.21" y2="187.05" gradientTransform="matrix(-1, 0, 0, 1, 277.82, 0)" gradientUnits="userSpaceOnUse"><stop offset="0.14" stop-color="#131719"/><stop offset="0.15" stop-color="#1c1c1c"/><stop offset="0.46" stop-color="#1c1c1c"/><stop offset="0.47" stop-color="#292929"/><stop offset="0.88" stop-color="#292929"/><stop offset="0.88" stop-color="#1c1c1c"/></linearGradient><linearGradient id="Безымянный_градиент_38-2" x1="31.34" y1="316.91" x2="33.12" y2="320.01" xlink:href="#Безымянный_градиент_38"/><linearGradient id="Безымянный_градиент_37-2" x1="28.81" y1="317.95" x2="30.88" y2="321.56" xlink:href="#Безымянный_градиент_37"/></defs><title>velosport</title><g class="cls-1"><g id="Layer"><path class="cls-2" d="M227.5,271.17v3.18a2.15,2.15,0,0,0,1.29,1.68l14.56,8.33,1.78-1h0v-1.9l3.64-2.09,1.69-1,2,.74.54-.3,1.21-.69h0V275l-1.74,1-2-.74-.53-.33-.06.66.24-2-2-1.12-7.44-4.25-1,1.55c-.51-.29,0-.59-.6-.71l.34-1.57c-3.25-1.55-4.89-.55-5.81,0l-3.6,2.14-1.56.69,1,2.1Zm10.75,1-1.64.5,0,.47-3-.68-1.53,1,1.33,1.51-3.15-2,.9-.5,0,0,3.76-2.15a3,3,0,0,1,1.73-.28h0a3.19,3.19,0,0,1,1.33.41h0C238.94,270.9,239,271.69,238.25,272.14Zm10.27,4.23-2.16,1.24c-1.33-.1-1.91-1.3-3.14-2l-.21.85c.64-.59-.42-1.15-.5-1.19-1.16-.66-2-1-2.33-1.71l-.38-.16c-.31-.8,0-.82.8-1.34a0,0,0,0,0,0,0l.18-.12,4,2.27.14.08,3.62,2.06Zm-6.07,4.3-7.23-4.6a9.39,9.39,0,0,1,2.19.28l.12,0a9.63,9.63,0,0,1,2.68,1,6.06,6.06,0,0,1,1.47,1.15l0,0A2.2,2.2,0,0,1,242.45,280.67Z" transform="translate(-60.97 -3.02)"/><path class="cls-3" d="M227.5,271.17v.07a2.07,2.07,0,0,0,1.17,1.61l.12.08.73.41,3.29,1.9h0l1.56.89,8,4.6.92.52,1.78-1L243.9,279l2.46-1.41h0l2.14-1.24,1.35-.78.59-.33,2.06.74,1.74-1-4.37-2.51L248,271.4l-8.07-4.6-.18-.11a6,6,0,0,0-5.27-.22L230,269l-1.37.78-.25.14A1.63,1.63,0,0,0,227.5,271.17ZM238.25,269l-.25.16-1.35.77-.08,0-2.41,1.38-1.26.72a.15.15,0,0,1-.09,0,3,3,0,0,1-1.65.25,3.29,3.29,0,0,1-1.1-.31l-.23-.12h0c-.88-.5-1-1.26-.29-1.7a.22.22,0,0,1,.07-.06l1.57-.9,3.78-2.17a3.05,3.05,0,0,1,1.77-.27,3.19,3.19,0,0,1,1.33.41h0C238.94,267.79,239,268.59,238.25,269ZM249.71,274a4.38,4.38,0,0,1-1.82.52,7.55,7.55,0,0,1-1.51,0,7.83,7.83,0,0,1-1.62-.27,9.26,9.26,0,0,1-2.39-.87l-.26-.14a6.74,6.74,0,0,1-1.49-1.14,3.15,3.15,0,0,1-.68-1,1.57,1.57,0,0,1-.06-1.16,1.65,1.65,0,0,1,.72-.92l.2-.13,4.1,2.35,3.64,2.07Zm-7.34,2.5a1.62,1.62,0,0,1,.06,1.18,1.85,1.85,0,0,1-.75.9l-.17.11-4-2.27-3.33-1.92-1.61-.91a4.91,4.91,0,0,1,1.76-.52,8.51,8.51,0,0,1,2.24.06c.27,0,.55.09.82.15a10.19,10.19,0,0,1,2.53.91,1.74,1.74,0,0,1,.27.14,6.48,6.48,0,0,1,1.49,1.16,2.88,2.88,0,0,1,.65,1Z" transform="translate(-60.97 -3.02)"/><path class="cls-4" d="M250.93,278.56l-2.58-1.41-.15-.09h0a.93.93,0,0,0-.85.11,3.29,3.29,0,0,0-1.4,2.65,1.17,1.17,0,0,0,.53,1.15l2.61,1.43,0-.28a1.23,1.23,0,0,0,.29-.13,3.31,3.31,0,0,0,1.41-2.66,1.67,1.67,0,0,0-.12-.67Z" transform="translate(-60.97 -3.02)"/><path class="cls-5" d="M251.34,279.63a3.32,3.32,0,0,1-1.41,2.66c-.77.44-1.4,0-1.4-1.05a3.32,3.32,0,0,1,1.4-2.66C250.71,278.14,251.34,278.61,251.34,279.63Z" transform="translate(-60.97 -3.02)"/><path class="cls-6" d="M253.13,280.17,250.92,279a.33.33,0,0,0-.13-.07h0a.79.79,0,0,0-.73.09,2.86,2.86,0,0,0-1.2,2.28,1,1,0,0,0,.45,1l2.24,1.22,0-.24a.91.91,0,0,0,.25-.11,2.84,2.84,0,0,0,1.21-2.28,1.57,1.57,0,0,0-.1-.57Z" transform="translate(-60.97 -3.02)"/><path class="cls-7" d="M253.48,281.09a2.86,2.86,0,0,1-1.2,2.28c-.67.38-1.21,0-1.21-.9a2.84,2.84,0,0,1,1.21-2.28C252.94,279.81,253.48,280.21,253.48,281.09Z" transform="translate(-60.97 -3.02)"/><path class="cls-8" d="M261.29,245.5a8.45,8.45,0,0,1-1.56,4.47c-1.47,1.92-3.78,2.69-5.55,4.2s-2,4.57-2.43,6.6a45,45,0,0,1-4.32,10.85,22.4,22.4,0,0,1-3.79,5.34,13.84,13.84,0,0,1-10,3.8c-.33,0-.69-.05-1-.1a6.2,6.2,0,0,1-3.74-1.67c-2.16-2.26-1.75-6.31-1.11-9.11,1.13-4.95,5-7.85,7.6-11.93a16.78,16.78,0,0,0,2.44-8.93,27.91,27.91,0,0,0-.72-6.29c-.26-1.21-1.36-3-1.1-4.26s1.54-2.46,2.28-3.23a13.43,13.43,0,0,1,7.21-4.06,12.14,12.14,0,0,1,2.34-.23,13.3,13.3,0,0,1,13.44,14.55Z" transform="translate(-60.97 -3.02)"/><path class="cls-9" d="M261.29,245.5a8.45,8.45,0,0,1-1.56,4.47c-1.47,1.92-3.78,2.69-5.55,4.2s-2,4.57-2.43,6.6a45,45,0,0,1-4.32,10.85,22.4,22.4,0,0,1-3.79,5.34,13.84,13.84,0,0,1-10,3.8c-.33,0-.69-.05-1-.1a22,22,0,0,0,7.16-6.39c5.42-7.73,4.55-18.27,8.7-26.72,1-2,2.29-4,2.41-6.21.18-3.2-2.48-4.9-3-7.77a6.8,6.8,0,0,1,0-2.62,13.3,13.3,0,0,1,13.44,14.55Z" transform="translate(-60.97 -3.02)"/><path class="cls-10" d="M250.39,234.21a8.83,8.83,0,0,1-.83,2.87,10,10,0,0,1-1.66,2.54,9.68,9.68,0,0,1-7.78,3.08c-2.15-.18-3.13-1.54-4.36-3.13-7-8.93-16.14-15.8-24.79-23-2.18-1.85-4.36-3.72-6.47-5.67-2.36-2.16-4.9-4-7-6.39-1.87-2.08-4.05-4.41-4.33-7.34-.44-4.9,2.31-9.47,5-13.6,1.64-3.28,10.21-16.09,12.32-19.4,1-1.51,1.92-3,2.9-4.52.74-1.1,1.48-2.2,2.25-3.28a56.46,56.46,0,0,1,5.78-6.85,26.77,26.77,0,0,1,3.21-3,10.74,10.74,0,0,1,3.69-1.47,11.61,11.61,0,0,1,8.13,1.16c4.6,2.44,7.5,7.29,8.78,12.34a16.36,16.36,0,0,1-2.54,14.76c-3.05,4.46-7.31,8-11.65,11.26-3.8,2.85-7.72,5.52-11.73,8.06a26.46,26.46,0,0,1,13.3,6.26,37.61,37.61,0,0,1,6.51,8.52,124.93,124.93,0,0,1,8.16,16.73c.59,1.44,1.16,2.87,1.72,4.34a19.28,19.28,0,0,1,1.44,3.9A6.87,6.87,0,0,1,250.39,234.21Z" transform="translate(-60.97 -3.02)"/><path class="cls-11" d="M250.39,234.21a8.83,8.83,0,0,1-.83,2.87c-.43-.66-.84-1.36-1.25-2a124.72,124.72,0,0,0-33.72-35.95,8.64,8.64,0,0,1-2.82-2.72c-1.44-2.65.3-5.85,2-8.32,3.62-5.13,7.54-10.34,11.44-15.39,1.06-1.36,2.65-2.47,2.65-4.24v-.23a6,6,0,0,0-3-4.18,19.71,19.71,0,0,0-6-2,13,13,0,0,1-5.59-2.42c.74-1.1,1.48-2.2,2.25-3.28a56.46,56.46,0,0,1,5.78-6.85,26.77,26.77,0,0,1,3.21-3,10.74,10.74,0,0,1,3.69-1.47,11.61,11.61,0,0,1,8.13,1.16c4.6,2.44,7.5,7.29,8.78,12.34a16.36,16.36,0,0,1-2.54,14.76c-3.05,4.46-7.31,8-11.65,11.26-3.8,2.85-7.72,5.52-11.73,8.06a26.46,26.46,0,0,1,13.3,6.26,37.61,37.61,0,0,1,6.51,8.52,124.93,124.93,0,0,1,8.16,16.73c.59,1.44,1.16,2.87,1.72,4.34a19.28,19.28,0,0,1,1.44,3.9A6.87,6.87,0,0,1,250.39,234.21Z" transform="translate(-60.97 -3.02)"/><path class="cls-8" d="M273.53,157c-5.16,3.88-10.52,7.5-15.78,11.27-2.59,1.84-5.16,3.72-7.67,5.67-2.16,1.67-4.29,3.72-6.8,4.8a.57.57,0,0,1-.49.05.61.61,0,0,1-.23-.34c-.72-1.87-1.41-3.74-2.13-5.59-.08-.23-.18-.46-.26-.69a48,48,0,0,0-3.33-7.42,16.54,16.54,0,0,0-9.86-8,18.78,18.78,0,0,0-6.82-.9,17.54,17.54,0,0,0-3.47.54,6.69,6.69,0,0,0-2.56,1.7c.64-.59,5.72-7.93,7-9.68,2.59-3.46,5.16-7,7.72-10.47,0,0,.05-.07.08-.1,1.8-2.46,3.57-4.88,5.36-7.31.31-.44.64-.88,1-1.31,2.36-3.16,5.8-6.08,9.73-6.91,4.82-1,9.93,1.08,13.47,4.5s5.75,8,7.41,12.65,2.9,9.44,4.88,14A6.8,6.8,0,0,0,273.53,157Z" transform="translate(-60.97 -3.02)"/><path class="cls-9" d="M253.18,152.74c-.23,4.77-1.2,9.67-4,13.52a22.69,22.69,0,0,1-5.56,5.18,7.34,7.34,0,0,1-2.83,1.42,1.83,1.83,0,0,1-.33,0c-.08-.23-.18-.46-.26-.69a48,48,0,0,0-3.33-7.42,23.12,23.12,0,0,0,2.67-4.72,18,18,0,0,0,.41-13.42,5.47,5.47,0,0,0-1.29-2.08,7.76,7.76,0,0,0-2.61-1.28c-2.19-.85-5.85-2.82-7.06-5.39,1.8-2.46,3.57-4.88,5.36-7.31a12.05,12.05,0,0,1,4.78-.08,16.82,16.82,0,0,1,11,7.39C252.82,142.22,253.41,147.6,253.18,152.74Z" transform="translate(-60.97 -3.02)"/><path class="cls-5" d="M276.38,269.56c0,43.08,26.46,62.89,59.1,44.22s59.1-68.71,59.1-111.79-26.46-62.9-59.1-44.25S276.38,226.47,276.38,269.56Zm9.86,1.31c0-40.73,22.18-86.74,52.75-104.21,7-4,13.76-8,19.87-8,17.21,0,30,18.59,30,45.34,0,40.73-26.46,86-57,103.54-7,4-13.68,6-19.82,6-8.08,0-14.72-3.54-19.71-10.55C286.65,295.15,286.24,284.87,286.24,270.87Z" transform="translate(-60.97 -3.02)"/><path class="cls-12" d="M282.79,273.49c0,43.08,26.46,62.89,59.11,44.22S401,249,401,205.92s-26.46-62.9-59.1-44.25S282.79,230.4,282.79,273.49Zm7.31,0c0-40.73,24.87-88.08,55.45-105.55a38.67,38.67,0,0,1,19.73-5.35c17.21,0,28.42,16.58,28.42,43.33,0,40.72-24.88,88.05-55.45,105.54-7,4-13.68,6.05-19.82,6.05-8.08,0-14.73-3.54-19.72-10.55C293.07,299.08,290.1,287.49,290.1,273.49Z" transform="translate(-60.97 -3.02)"/><path class="cls-13" d="M292,274.07c0,13.81,2.93,25.25,8.5,33C305.43,314,312,317.51,320,317.51c6,0,12.61-2,19.55-6,30.16-17.26,54.71-64,54.71-104.14,0-26.39-11-43.44-28-43.44-6,0-12.6,2-19.55,6C316.55,187.17,292,233.89,292,274.07Zm0,1.05c-3.22-37.12,27.67-90.8,55.38-106.64,5.82-3.33,16.43-5.49,21.18-5.49,12.61,0,22.66,21.89,22.66,43.95,0,37.26-25.52,86.43-53.24,102.26-5.83,3.33-13.7,7.4-18.46,7.4-5.67,0-14.52-4.15-18.12-9.19C296.69,300.85,293.32,290.26,292,275.12Z" transform="translate(-60.97 -3.02)"/><path class="cls-14" d="M290.84,271.29c0,14,1.2,24.26,6.86,32.12,5,7,9.77,11.87,17.86,11.87,6.09,0,12.76-2,19.79-6,30.55-17.51,55.41-64.8,55.41-105.49,0-26.73-11.12-40.43-28.3-40.43-6.13,0-12.32,4.8-19.35,8.82C312.56,189.59,290.84,230.57,290.84,271.29Zm0,0c0-39.58,24.06-85.5,53.64-102.4,6.45-3.66,12.5-5.56,18-5.56,15,0,24.68,15.86,24.68,40.43,0,39.54-24,85.47-53.61,102.37-6.48,3.7-12.54,5.56-18,5.56-7,0-12.44-2.94-16.75-9C293.59,295.4,290.84,284.57,290.84,271.29Z" transform="translate(-60.97 -3.02)"/><path class="cls-2" d="M336.19,177l.28,129.88H337l-.28-130.4C336.56,176.61,336.37,176.8,336.19,177Z" transform="translate(-60.97 -3.02)"/><path class="cls-2" d="M317.61,314.55l.53.13L336,241.41l.4-1.57,0-.16v0l0-.11,0-.1v0l0,0v0l.08-.37v0l0-.08,0-.05v-.06l0-.1,0-.11,0-.1,0-.13.24-.94,17.12-70a6,6,0,0,0-.66.34L337,235.13l-.47,1.89-.08.36-.08.29-.11.47,0,.21,0,.08,0,.1v.11l0,.07,0,.11,0,.1,0,.06v0l0,.08,0,.11v.05l0,.1,0,.16,0,0v0l-.05.19-.11.47-.16.6-.1.42-.58,2.43Z" transform="translate(-60.97 -3.02)"/><path class="cls-2" d="M302.72,307.73a5.26,5.26,0,0,1,.35.52l31.87-64.59,1.1-2.25.43-.86.13-.24.18-.39.06-.13.05-.08,0-.08.05-.08,0-.05v0l0-.05.08-.16,0,0v-.05l0,0v0h0l.05-.1v0l.16-.34,0,0,.1-.24.22-.39.76-1.57,36-72.8-.5-.24-37,74.82v0l0,.06-.16.28,0,.06-.05.1v0l0,0,0,.06,0,.05-.05.08v0l-.14.26,0,.06v0l0,0,0,0-.05.11v0l-.16.34-.29.58-.39.76Z" transform="translate(-60.97 -3.02)"/><path class="cls-2" d="M334.78,241l-40.46,49.17c0,.26.05.5.08.73l41.22-50.05.29-.34.53-.63,0-.05,0,0,.14-.18,0,0,0,0,0-.06.06-.05h0l.06-.1h0v0l.08-.08.08-.1.13-.13.24-.32,0,0,.24-.29.6-.76,46.67-56.76-.45-.34-46,55.95L337,238.22v0l0,.06-.19.18,0,.05,0,.05-.05.08-.08.08-.05.08,0,.05,0,0-.08.08v0l0,0-.05,0-.05.08-.08.1-.19.24h0v0l0,0-.21.26Z" transform="translate(-60.97 -3.02)"/><path class="cls-2" d="M290.45,275.1,334.78,241l1-.75.42-.32.27-.21v0l.16-.11h0v0h0v0l.08-.08h0l.19-.13,0,0,.05,0,0,0h0l0,0v0h0l.13-.1,0,0,.61-.47,1.08-.81,49.76-38.11-.34-.45-50.19,38.43-.52.42-.72.55-.16.13h0l-.06.05h0v0l0,0h0l0,0v0h0l0,0-.16.11v0h0l-.05,0,0,0-.05,0-.05.08-.11.08,0,0-.11.08-.21.19h0l0,0-.87.68L290.47,274.4C290.45,274.63,290.45,274.87,290.45,275.1Z" transform="translate(-60.97 -3.02)"/><polygon class="cls-2" points="230.76 256.87 273.88 237.22 274.76 236.8 274.92 236.72 275.37 236.54 275.39 236.54 275.39 236.51 275.47 236.48 275.5 236.46 275.55 236.43 275.6 236.43 275.6 236.41 275.68 236.38 275.87 236.3 275.89 236.3 275.89 236.28 276 236.25 276.05 236.22 276.1 236.2 276.13 236.17 276.16 236.17 276.18 236.14 276.21 236.14 276.47 236.01 276.5 236.01 278.03 235.31 327.82 212.53 327.59 212.03 278.06 234.71 276.69 235.33 276.55 235.39 276.05 235.62 275.89 235.67 275.89 235.7 275.81 235.73 275.79 235.73 275.79 235.75 275.76 235.78 275.68 235.78 275.65 235.81 275.6 235.81 275.6 235.83 275.55 235.86 275.5 235.86 275.39 235.91 275.37 235.94 275.26 235.96 275.26 235.99 275.15 236.04 275.07 236.07 274.97 236.12 274.84 236.17 274.12 236.51 273.46 236.8 230.84 256.24 230.76 256.87"/><path class="cls-2" d="M294.24,248.09l40.19-8.28,1.3-.26,0,0h0l.19,0h0l.42-.11h.11v0h0l.29-.05h0l.11,0h0l.08,0h0l.05,0,.13,0,.45-.08.4-.07,47.91-9.86-.13-.53L339,238.32l-1.05.21-.53.11,0,0-.37.08-.16,0h-.1l0,0h-.08l0,0h-.08l-.08,0-.13,0-.16,0-.08,0-.11,0-.21,0-.08,0-.34.08-2,.39-39,8.05A3.16,3.16,0,0,0,294.24,248.09Z" transform="translate(-60.97 -3.02)"/><path class="cls-2" d="M295.78,238.66l37.62.81,1.69.06H336l.37,0H337l.21,0h.8l1.74,0,43.5,1.15,0-.55-45.14-1.17-.69,0h-.37l-.08,0h-.95v0h-.42l-.71,0-39-.84A3.92,3.92,0,0,0,295.78,238.66Z" transform="translate(-60.97 -3.02)"/><path class="cls-2" d="M300,230.23,334.94,239l.42.13.45.11.21.05.08,0h.08l.1,0,.13.05h.06l0,0h0l.1,0,.11,0h0l.22.05v0h0l.19.05.13,0h0l.31.08.95.23,41.1,10.51.14-.52-40.1-10.25-2-.5-.29-.1h-.1l0,0h-.11l-.08,0-.13-.06h-.08l-.05,0h0l-.13,0,0,0h-.05l0,0h-.08l-.08,0-.16,0h0l-.13,0-.13,0-.48-.13-1.4-.37-34-8.46A3.34,3.34,0,0,0,300,230.23Z" transform="translate(-60.97 -3.02)"/><path class="cls-2" d="M303.44,222.23l30.7,16,1.51.79.05,0,.24.13.08.06.13.05,0,0,.1,0,.13.08v0h.06l0,0v0h.05l0,0,.08,0v0l.05,0h0l.16.08.1.05,0,0,.32.16.34.18,1.06.55,37,19.14.23-.5-37.35-19.35-.6-.31-.72-.37-.13-.05h0v0l-.1,0H337v0h0l-.05,0v0h0l-.21-.1h0l0,0-.06,0,0,0-.08,0-.16-.1-.05,0-.08,0-.32-.16-1.06-.55-31.15-16.2A3.55,3.55,0,0,0,303.44,222.23Z" transform="translate(-60.97 -3.02)"/><path class="cls-2" d="M306.65,214l28.15,24,.74.63.45.39.05,0,0,0,.05.06.14.1.13.13.08,0v0l0,0v0h0l0,0v0l0,0,.08,0v0l.05,0,.16.16.13.1.05,0,.45.39.9.76,32.49,27.64.35-.39L338.77,240.6l-1.09-.94-.1-.08-.4-.34-.05,0v0h0l-.08-.08,0,0,0,0-.05,0v0h0l-.16-.13,0,0h0v-.06h0l0,0-.13-.1-.21-.19-.06,0-.1-.11-1-.81-28.26-24Z" transform="translate(-60.97 -3.02)"/><path class="cls-2" d="M311.64,205.79l23.51,31.72.71,1,.16.21.1.13.06.08.05.08v0h0l.05.08.08.11.08.1v.05l0,0h0v0l0,0v0l.08.08v0l.19.24.18.26.11.13.87,1.18,26.86,36.21.45-.31L338.42,241l-.71-.94-.34-.47-.24-.32v0l-.06,0-.05-.1,0,0v0h0l0-.06h0V239l-.06,0-.1-.13v0l-.06-.05,0,0-.21-.28-.19-.24-.1-.18-.56-.74-23.69-32C311.82,205.42,311.74,205.61,311.64,205.79Z" transform="translate(-60.97 -3.02)"/><path class="cls-2" d="M317.61,196l18,41.23.48,1.1.08.21.08.13,0,.08.06.11v0l0,0,0,.08v0l.08.16,0,.07.06.11v0l0,0v0l0,0,0,.08v0l.15.34.24.55.27.6L357.62,288l.5-.21L338,241.36l-.48-1.13-.15-.36-.14-.29,0,0-.11-.29,0,0-.05-.1v0h0V239l-.06-.08-.08-.15v-.06l0,0,0-.05,0-.11,0-.05-.29-.65-.08-.16-.48-1.15L318,195.44A3,3,0,0,0,317.61,196Z" transform="translate(-60.97 -3.02)"/><path class="cls-2" d="M326.73,186l9.18,50.57.27,1.44.05.39,0,.1.05.24v.05l0,.11v.1l0,.05v.06l0,.13v.1l0,.05v.08l0,.08v.05l0,.11v0l0,.08.11.55.42,2.43,10,55.86.55-.11-10.32-57.42-.16-.89-.06-.34,0-.13,0,0v-.13l0-.05v0l0-.18v0l0,0,0-.18V239l0,0,0-.13v-.08l0-.11,0-.1,0-.13-.23-1.33-.08-.47-9.29-51.18A6.41,6.41,0,0,0,326.73,186Z" transform="translate(-60.97 -3.02)"/><path class="cls-15" d="M290,273.52c0,14,3,25.58,8.63,33.44,5,7,11.63,10.55,19.72,10.55,6.08,0,12.75-2.05,19.79-6C368.66,294,393.52,246.68,393.52,206c0-26.73-11.12-44-28.3-44-6.13,0-11.77,1.24-19,4.85C313.78,182.94,290,232.79,290,273.52Zm3.63,0c0-39.58,24.06-85.51,53.64-102.41,6.45-3.66,12.5-5.56,18-5.56,15,0,24.68,15.86,24.68,40.44,0,39.54-24,85.47-53.61,102.37-6.48,3.69-12.54,5.56-18,5.56-7,0-12.44-2.94-16.75-9C296.35,297.63,293.6,286.79,293.6,273.52Z" transform="translate(-60.97 -3.02)"/><path class="cls-16" d="M352.88,232.55a2,2,0,0,0-.18-.57,1.11,1.11,0,0,0-.81-.61c-.69-.11-1-.82-1-1.72a4.48,4.48,0,0,1,.24-1.4c.08-.23.18-.45.27-.67s.27-.28.44-.37l.39-.2a2.34,2.34,0,0,0,.47-.3,1.48,1.48,0,0,0,.42-1,5.19,5.19,0,0,0-.11-1.18,3.81,3.81,0,0,1-.08-.59,2,2,0,0,0,0-.42,1.65,1.65,0,0,0-.63-1.2,1.28,1.28,0,0,0-1.33.1l0,0c-1.18.7-2-.09-2-1.48a4.51,4.51,0,0,1,.29-1.52c.86-2.39-.29-3.84-1.71-3a3.49,3.49,0,0,0-1,1c-1.33,1.81-3,1.5-3-.53v-.05c0-2.76-2.74-2.16-3.74.82a4.31,4.31,0,0,1-1.75,2.35,1.16,1.16,0,0,1-1.75-.36c-1-1.81-3.74.71-3.74,3.41v.06a4.7,4.7,0,0,1-2,3.82,1.42,1.42,0,0,1-1,.21c-1.44-.32-3,2.12-3,4a2.29,2.29,0,0,0,.3,1.19c.8,1.31-.17,4.09-1.71,5l0,0a4.65,4.65,0,0,0-2,3.82c0,.87.32,1.57,1,1.68s1,.82,1,1.72a4.91,4.91,0,0,1-1,2.89c-1.8,2.36-1.08,5.56,1,4.39l0,0c1.19-.7,2,.09,2,1.48a4.45,4.45,0,0,1-.29,1.51c-.86,2.4.29,3.84,1.71,3,.33-.19.9,0,1.24-.45,1.33-1.82,2.81-2,2.81,0v.05c0,1.68,1.3,2.36,2.33,1.77a3.68,3.68,0,0,0,1.66-2.19c.38-1.11.82-2.36,1.5-2.75a1.16,1.16,0,0,1,1.75.36,1.09,1.09,0,0,0,.82.6,1.47,1.47,0,0,0,.51,0c.22-.05.45-.05.68-.09a1.58,1.58,0,0,0,.67-.27A3.1,3.1,0,0,0,343,254c.05-.08.11-.16.16-.25a2.06,2.06,0,0,0,.15-.89v-.48a2.16,2.16,0,0,1,0-.44,4,4,0,0,0,.1-.84v-.06c0-1.54,1.11-2.35,2.13-3.19.31-.25.56-.91.89-.84a1.38,1.38,0,0,0,1.05-.2.58.58,0,0,1,.15-.11l.26-.07a2.15,2.15,0,0,0,.5-.12A1.72,1.72,0,0,0,349,246a3.53,3.53,0,0,0,.37-.55,1.53,1.53,0,0,0,.17-.55,3.13,3.13,0,0,0,0-.53c0-.23,0-.47-.07-.7a2.07,2.07,0,0,1,0-.35,2,2,0,0,0,0-.24,2.25,2.25,0,0,0-.3-1.2,1.68,1.68,0,0,1-.2-.48.54.54,0,0,1,0-.51,4.07,4.07,0,0,0,.68-1.24,3,3,0,0,0,0-1.12.88.88,0,0,1,.05-.51,2.87,2.87,0,0,1,.34-.44,3.19,3.19,0,0,1,.79-.67l0,0,.32-.2a2.2,2.2,0,0,1,.36-.13,3.48,3.48,0,0,0,.69-.36,2.26,2.26,0,0,0,.85-1.19,2.35,2.35,0,0,0-.07-1.46c0-.1-.08-.2-.1-.3a1.13,1.13,0,0,1,0-.18A4.36,4.36,0,0,0,352.88,232.55Zm-1.82-8.94c.57-.33,1,0,1,.76a2.45,2.45,0,0,1-1,2c-.57.33-1,0-1-.78A2.41,2.41,0,0,1,351.06,223.61Zm-2.17-.11a1.74,1.74,0,0,1-.73,1.38c-.41.23-.73,0-.73-.55a1.71,1.71,0,0,1,.73-1.38C348.56,222.72,348.89,223,348.89,223.5Zm-20.31,27.14a1.74,1.74,0,0,1-.73,1.39c-.41.23-.73,0-.73-.55a1.69,1.69,0,0,1,.73-1.38C328.25,249.86,328.58,250.11,328.58,250.64Zm-.09-5.45a1.28,1.28,0,0,1-.15-.25,2.92,2.92,0,0,1-.27-1,8.64,8.64,0,0,1,.05-2.37,9.73,9.73,0,0,1,1-3,2.2,2.2,0,0,1,.41-.59.66.66,0,0,1,.87,0c.55.36,1,.86,1.6,1.18a2.06,2.06,0,0,0,2,.13,9.15,9.15,0,0,0,1.61-1.16c.24-.2,1.52-1.23,1.4-.57a7.94,7.94,0,0,1-.71,1.75c-.3.62-.63,1.23-1,1.82a22.53,22.53,0,0,1-2.28,3.19,6.73,6.73,0,0,1-1.45,1.35,2.32,2.32,0,0,1-2.26.29A2.11,2.11,0,0,1,328.49,245.19Zm18-19.08a5.37,5.37,0,0,1,.28,2.6,2.17,2.17,0,0,1-.17.7,1.64,1.64,0,0,1-.92.8c-.74.3-1.48.47-2.23.81a5.3,5.3,0,0,0-2.18,1.75,15.2,15.2,0,0,0-1.2,2.13c-.17.33-1.08,2.07-1.25,1.6a4.92,4.92,0,0,1,0-1.63A18.39,18.39,0,0,1,339,233a23,23,0,0,1,1-3.87A11.1,11.1,0,0,1,341,227a6.24,6.24,0,0,1,2.29-2.24,3.26,3.26,0,0,1,1.21-.38h.27a1.35,1.35,0,0,1,.73.33A3.2,3.2,0,0,1,346.45,226.11Zm-9.2,3.72a7.31,7.31,0,0,0-.3,3.07,5.42,5.42,0,0,0,.68,1.56c.11.22.73,1.38.26,1.68a2.06,2.06,0,0,1-1.19.21,6.06,6.06,0,0,1-1.21-.14,4.61,4.61,0,0,1-2.07-1.09,2.84,2.84,0,0,1-.82-1.17,6.11,6.11,0,0,1,0-3.18,10,10,0,0,1,.6-1.77,3.54,3.54,0,0,1,.19-.39,6.17,6.17,0,0,1,.77-1.14,8.42,8.42,0,0,1,1.7-1.64,3.19,3.19,0,0,1,2.08-.71.49.49,0,0,1,.38.19,1.9,1.9,0,0,1-.08,1.27C338,227.67,337.54,228.74,337.25,229.83Zm1.44,11a11.48,11.48,0,0,1,.66,3.06,7.34,7.34,0,0,1-.08,2,9,9,0,0,1-1.43,3.34,8.28,8.28,0,0,1-1.12,1.34l-.28.24a3.37,3.37,0,0,1-.93.5,3.19,3.19,0,0,1-1.68.16,2,2,0,0,1-1.46-1.17,1,1,0,0,1-.12-.55,2.65,2.65,0,0,1,.61-1.29c.66-.85,1.36-1.62,2-2.5a9.41,9.41,0,0,0,1.53-3,13.45,13.45,0,0,0,.33-2.29c0-.33.22-2.13.61-2s.54.56.74.89A7.12,7.12,0,0,1,338.69,240.85Zm4.55,3.44a1,1,0,0,1-.49.25c-.3,0-.42-.41-.48-.79-.14-.89-.18-1.86-.35-2.74a2.83,2.83,0,0,0-1.05-2,3.31,3.31,0,0,0-1.41-.26c-.22,0-1.38-.11-1-.7a5.1,5.1,0,0,1,1.17-1.19,12.52,12.52,0,0,1,1.35-1,9.51,9.51,0,0,1,2.68-1.29,2.62,2.62,0,0,1,1.4-.09,2.26,2.26,0,0,1,1.38,1.79,5.37,5.37,0,0,1,.15,1.54,2.69,2.69,0,0,1,0,.4,7.42,7.42,0,0,1-.31,1.33,13.34,13.34,0,0,1-1.09,2.48A8.09,8.09,0,0,1,343.24,244.29Zm4.19-26.63c.56-.33,1,0,1,.77a2.44,2.44,0,0,1-1,1.95c-.57.33-1,0-1-.77A2.45,2.45,0,0,1,347.43,217.66Zm-3.59,1.74c.4-.23.72,0,.72.55a1.71,1.71,0,0,1-.72,1.38c-.41.24-.74,0-.74-.54A1.72,1.72,0,0,1,343.84,219.4Zm-3.36-1,.09-.24c.15-.36.31-.71.48-1.07a.83.83,0,0,1,.14-.3,1,1,0,0,1,.37-.17c.54-.12.76.44.76.88a2.43,2.43,0,0,1-1,1.95.63.63,0,0,1-.81-.06.67.67,0,0,1-.1-.68A1.6,1.6,0,0,1,340.48,218.36Zm-2.41,2.41c.4-.23.73,0,.73.54a1.74,1.74,0,0,1-.73,1.39c-.41.23-.73,0-.73-.55A1.69,1.69,0,0,1,338.07,220.77Zm-3.74-.1c.57-.33,1,0,1,.76a2.46,2.46,0,0,1-1,2c-.56.32-1,0-1-.78A2.43,2.43,0,0,1,334.33,220.67Zm-1.95,5.86c.09-.08.1.06.13.12a1,1,0,0,1,.05.33,1.74,1.74,0,0,1-.73,1.38c-.11.06-.34.15-.45,0a.17.17,0,0,1,0-.07,1.72,1.72,0,0,1,.1-.39A2.93,2.93,0,0,1,332.38,226.53Zm-4.5,3.18a5.44,5.44,0,0,1,.32-.88c.05-.1.1-.23.2-.28a.54.54,0,0,1,.28-.05c.46,0,.61.51.61.89a2.44,2.44,0,0,1-1,2c-.16.09-.71.25-.76-.06a.42.42,0,0,1,0-.16l.12-.46C327.7,230.34,327.79,230,327.88,229.71Zm0,5.22c.2-.39.35.2.35.36a1.72,1.72,0,0,1-.74,1.39c-.05,0-.18.13-.2,0a1,1,0,0,1,0-.34s0-.06,0-.09A6.76,6.76,0,0,1,327.9,234.93Zm-3,6.37c-.57.33-1,0-1-.77a2.44,2.44,0,0,1,1-1.95c.58-.33,1,0,1,.77A2.43,2.43,0,0,1,324.86,241.3Zm0,9.35c-.57.33-1,0-1-.77a2.43,2.43,0,0,1,1-1.95c.58-.33,1,0,1,.77A2.43,2.43,0,0,1,324.86,250.65Zm1.52-5.73c-.4.23-.73,0-.73-.55a1.74,1.74,0,0,1,.73-1.38c.41-.23.74,0,.74.54A1.72,1.72,0,0,1,326.38,244.92ZM328.15,257c-.57.33-.85,0-.85-.76a2.33,2.33,0,0,1,.85-2c.57-.32,1,0,1,.77A2.43,2.43,0,0,1,328.15,257Zm3.9-2.23c-.4.23-.72,0-.72-.55a1.73,1.73,0,0,1,.72-1.38c.41-.23.74,0,.74.55A1.72,1.72,0,0,1,332.05,254.78Zm2.31,3.34c-.56.32-1,0-1-.77a2.46,2.46,0,0,1,1-2c.57-.33,1,0,1,.77A2.44,2.44,0,0,1,334.36,258.12Zm3.53-4.74c-.4.23-.73,0-.73-.54a1.74,1.74,0,0,1,.73-1.39c.4-.23.73,0,.73.55A1.74,1.74,0,0,1,337.89,253.38Zm3.5.72c-.56.32-1,0-1-.77a2.46,2.46,0,0,1,1-2c.57-.33,1,0,1,.77A2.44,2.44,0,0,1,341.39,254.1Zm2.54-6.1c-.4.23-.73,0-.73-.55a1.74,1.74,0,0,1,.73-1.39c.4-.23.73,0,.73.55A1.75,1.75,0,0,1,343.93,248Zm3.8-2.17c-.57.32-1,0-1-.78a2.44,2.44,0,0,1,1-2c.56-.32,1,0,1,.77A2.49,2.49,0,0,1,347.73,245.83Zm.3-5.72c-.41.23-.73,0-.73-.55a1.71,1.71,0,0,1,.73-1.38c.4-.23.73,0,.73.54A1.74,1.74,0,0,1,348,240.11Zm1.46-8.4c-.41.24-.73,0-.73-.55a1.72,1.72,0,0,1,.73-1.38c.41-.23.73,0,.73.55A1.69,1.69,0,0,1,349.49,231.71Zm1.77,3.86c-.58.32-1,0-1-.77a2.44,2.44,0,0,1,1-2c.56-.32,1,0,1,.78A2.46,2.46,0,0,1,351.26,235.57Z" transform="translate(-60.97 -3.02)"/><path class="cls-17" d="M352.62,231.8c-.68-.1-1-.81-1-1.71a5,5,0,0,1,1-2.9c1.81-2.35,1.09-5.55-1-4.38l0,0c-1.18.71-2-.09-2-1.48a4.45,4.45,0,0,1,.29-1.51c.86-2.39-.3-3.84-1.71-3a3.5,3.5,0,0,0-1,1c-1.34,1.82-3,1.5-3-.53v0c0-2.76-2.73-2.16-3.74.82a4.27,4.27,0,0,1-1.75,2.35,1.15,1.15,0,0,1-1.74-.36c-1-1.81-3.74.71-3.74,3.42v.05a4.74,4.74,0,0,1-2,3.83,1.47,1.47,0,0,1-1,.2c-1.43-.32-3,2.12-3,4a2.35,2.35,0,0,0,.29,1.2c.81,1.3-.16,4.09-1.71,5l0,0a4.63,4.63,0,0,0-2,3.83c0,.87.31,1.56,1,1.68s1,.81,1,1.71a4.94,4.94,0,0,1-1,2.9c-1.8,2.36-1.08,5.55,1,4.39l0,0c1.18-.7,2,.09,2,1.48a4.41,4.41,0,0,1-.29,1.51c-.86,2.4.29,3.85,1.71,3a3.58,3.58,0,0,0,1-1c1.34-1.82,3-1.51,3,.53v0c0,1.68,1,2.12,2,1.53a4.25,4.25,0,0,0,1.72-2.34,4.3,4.3,0,0,1,1.74-2.35,1.16,1.16,0,0,1,1.75.35c1,1.81,3.74-.71,3.74-3.41v0a4.71,4.71,0,0,1,2-3.83,1.46,1.46,0,0,1,1-.2c1.43.32,3-2.12,3-4a2.35,2.35,0,0,0-.29-1.2c-.81-1.3.16-4.08,1.71-5l0,0a4.68,4.68,0,0,0,2-3.83C353.65,232.61,353.34,231.92,352.62,231.8Zm-.83-7.76c.58-.33,1,0,1,.77a2.41,2.41,0,0,1-1,1.95c-.56.33-1,0-1-.77A2.46,2.46,0,0,1,351.79,224Zm-2.17-.11a1.74,1.74,0,0,1-.73,1.39c-.4.23-.73,0-.73-.55a1.72,1.72,0,0,1,.73-1.38C349.29,223.15,349.62,223.4,349.62,223.93Zm-20.31,27.14a1.71,1.71,0,0,1-.73,1.39c-.4.23-.73,0-.73-.55a1.74,1.74,0,0,1,.73-1.38C329,250.3,329.31,250.54,329.31,251.07Zm-.09-5.45a1.28,1.28,0,0,1-.15-.25,3.16,3.16,0,0,1-.26-1,9,9,0,0,1,0-2.36,9.81,9.81,0,0,1,1-3,2.37,2.37,0,0,1,.41-.59.64.64,0,0,1,.86,0c.55.35,1,.85,1.6,1.17a2.06,2.06,0,0,0,2,.13,9.15,9.15,0,0,0,1.61-1.16c.24-.2,1.52-1.22,1.4-.57a7.07,7.07,0,0,1-.71,1.75c-.3.63-.62,1.24-1,1.83a22.53,22.53,0,0,1-2.28,3.19,7.52,7.52,0,0,1-1.44,1.35,2.34,2.34,0,0,1-2.26.28A2.06,2.06,0,0,1,329.22,245.62Zm18-19.08a5.39,5.39,0,0,1,.29,2.61,2.2,2.2,0,0,1-.18.69,1.61,1.61,0,0,1-.91.8c-.75.31-1.48.47-2.23.81A5.47,5.47,0,0,0,342,233.2a17,17,0,0,0-1.2,2.13c-.17.33-1.08,2.07-1.25,1.6a5.2,5.2,0,0,1,0-1.63,18.73,18.73,0,0,1,.23-1.91,23.89,23.89,0,0,1,1-3.86,10.88,10.88,0,0,1,.95-2.08,6,6,0,0,1,2.28-2.23,3.08,3.08,0,0,1,1.22-.38h.26a1.39,1.39,0,0,1,.74.34A3.21,3.21,0,0,1,347.18,226.54Zm-9.2,3.72a7.16,7.16,0,0,0-.29,3.07,5.4,5.4,0,0,0,.67,1.56c.12.22.73,1.38.26,1.69a2,2,0,0,1-1.18.2,5.43,5.43,0,0,1-1.22-.14,4.58,4.58,0,0,1-2.06-1.09,2.76,2.76,0,0,1-.83-1.17,6,6,0,0,1,0-3.17,10.21,10.21,0,0,1,.59-1.77c.06-.15.13-.28.19-.4a6.71,6.71,0,0,1,.77-1.14,8.7,8.7,0,0,1,1.7-1.64,3.21,3.21,0,0,1,2.08-.7.46.46,0,0,1,.38.18c.18.27.06.81-.08,1.28C338.68,228.1,338.27,229.18,338,230.26Zm1.44,11a10.83,10.83,0,0,1,.66,3.06,7.34,7.34,0,0,1-.08,2,9.1,9.1,0,0,1-1.42,3.35,8.74,8.74,0,0,1-1.12,1.33l-.29.25a3.33,3.33,0,0,1-.93.49,3.28,3.28,0,0,1-1.67.17,2.09,2.09,0,0,1-1.47-1.17,1.19,1.19,0,0,1-.12-.56,2.6,2.6,0,0,1,.62-1.28c.65-.86,1.36-1.63,2-2.51a9.33,9.33,0,0,0,1.54-3,14.53,14.53,0,0,0,.33-2.29c0-.33.21-2.13.6-2s.55.56.75.89A7.45,7.45,0,0,1,339.42,241.28Zm4.55,3.44a.9.9,0,0,1-.48.25c-.31,0-.42-.4-.48-.79-.15-.89-.19-1.86-.36-2.73a2.85,2.85,0,0,0-1-2,3.27,3.27,0,0,0-1.4-.26c-.23,0-1.39-.1-1-.69a5.36,5.36,0,0,1,1.17-1.2,12.61,12.61,0,0,1,1.36-1,9.22,9.22,0,0,1,2.68-1.28,2.53,2.53,0,0,1,1.4-.1,2.27,2.27,0,0,1,1.37,1.79,5.37,5.37,0,0,1,.15,1.54,2.69,2.69,0,0,1,0,.4A6,6,0,0,1,347,240a12.46,12.46,0,0,1-1.09,2.48A7.67,7.67,0,0,1,344,244.72Zm4.19-26.63c.57-.32,1,0,1,.77a2.45,2.45,0,0,1-1,2c-.57.32-1,0-1-.78A2.44,2.44,0,0,1,348.16,218.09Zm-3.59,1.75c.4-.23.73,0,.73.54a1.74,1.74,0,0,1-.73,1.39c-.4.23-.73,0-.73-.55A1.74,1.74,0,0,1,344.57,219.84ZM342,217.12c.58-.32,1,0,1,.77a2.44,2.44,0,0,1-1,2c-.56.32-1,0-1-.78A2.47,2.47,0,0,1,342,217.12Zm-3.22,4.08c.41-.23.74,0,.74.54a1.72,1.72,0,0,1-.74,1.39c-.4.23-.73,0-.73-.55A1.74,1.74,0,0,1,338.8,221.2Zm-3.73-.1c.57-.33,1,0,1,.77a2.43,2.43,0,0,1-1,1.95c-.57.33-1,0-1-.77A2.43,2.43,0,0,1,335.07,221.1Zm-2.51,5.76c.41-.23.73,0,.73.55a1.71,1.71,0,0,1-.73,1.38c-.4.23-.73,0-.73-.54A1.74,1.74,0,0,1,332.56,226.86ZM329,229.05c.57-.32,1,0,1,.77a2.41,2.41,0,0,1-1,2c-.57.33-1,0-1-.77A2.44,2.44,0,0,1,329,229.05Zm-.74,6.13c.4-.23.73,0,.73.55a1.74,1.74,0,0,1-.73,1.39c-.41.23-.73,0-.73-.56A1.71,1.71,0,0,1,328.25,235.18Zm-2.65,6.56c-.57.32-1,0-1-.78a2.44,2.44,0,0,1,1-2c.57-.32,1,0,1,.77A2.45,2.45,0,0,1,325.6,241.74Zm0,9.34c-.57.33-1,0-1-.77a2.44,2.44,0,0,1,1-1.95c.57-.33,1,0,1,.78A2.41,2.41,0,0,1,325.6,251.08Zm1.52-5.73c-.41.24-.73,0-.73-.55a1.71,1.71,0,0,1,.73-1.38c.41-.23.73,0,.73.55A1.69,1.69,0,0,1,327.12,245.35Zm1.76,12.1c-.56.32-1,0-1-.78a2.44,2.44,0,0,1,1-1.94c.57-.33,1,0,1,.77A2.44,2.44,0,0,1,328.88,257.45Zm3.91-2.23c-.41.23-.73,0-.73-.55a1.73,1.73,0,0,1,.73-1.39c.4-.23.73,0,.73.55A1.74,1.74,0,0,1,332.79,255.22Zm2.31,3.33c-.57.33-1,0-1-.77a2.44,2.44,0,0,1,1-1.95c.57-.33,1,0,1,.77A2.43,2.43,0,0,1,335.1,258.55Zm3.52-4.74c-.4.23-.73,0-.73-.54a1.74,1.74,0,0,1,.73-1.39c.41-.23.74,0,.74.55A1.72,1.72,0,0,1,338.62,253.81Zm3.51.72c-.57.33-1,0-1-.77a2.44,2.44,0,0,1,1-1.95c.57-.33,1,0,1,.78A2.41,2.41,0,0,1,342.13,254.53Zm2.53-6.1c-.4.23-.73,0-.73-.55a1.74,1.74,0,0,1,.73-1.38c.41-.23.73,0,.73.54A1.71,1.71,0,0,1,344.66,248.43Zm3.8-2.17c-.57.32-1,0-1-.78a2.41,2.41,0,0,1,1-1.94c.57-.33,1,0,1,.76A2.45,2.45,0,0,1,348.46,246.26Zm.3-5.71c-.4.23-.73,0-.73-.56a1.74,1.74,0,0,1,.73-1.38c.41-.23.73,0,.73.55A1.74,1.74,0,0,1,348.76,240.55Zm1.47-8.4c-.41.23-.74,0-.74-.55a1.7,1.7,0,0,1,.74-1.38c.4-.24.73,0,.73.54A1.74,1.74,0,0,1,350.23,232.15ZM352,236c-.57.33-1,0-1-.77a2.43,2.43,0,0,1,1-1.95c.57-.33,1,0,1,.77A2.44,2.44,0,0,1,352,236Z" transform="translate(-60.97 -3.02)"/><path class="cls-18" d="M346.19,238.63l-6.07-3.75a1.43,1.43,0,0,0-.27-.15h0a1.75,1.75,0,0,0-1.57.19,6.14,6.14,0,0,0-2.58,4.89,2.2,2.2,0,0,0,1,2.11l6.13,3.78.07-.52a3,3,0,0,0,.54-.23,6.11,6.11,0,0,0,2.58-4.89,3.28,3.28,0,0,0-.21-1.24Z" transform="translate(-60.97 -3.02)"/><path class="cls-5" d="M347,240.61a6.12,6.12,0,0,1-2.59,4.89c-1.42.81-2.58-.05-2.58-1.94a6.14,6.14,0,0,1,2.58-4.89C345.79,237.86,347,238.73,347,240.61Z" transform="translate(-60.97 -3.02)"/><polygon class="cls-12" points="190.97 309.56 199.5 297.96 107.3 231.56 98.77 243.16 190.97 309.56"/><polygon class="cls-19" points="280.62 243.71 282.74 233.16 206.67 211.82 204.55 222.38 280.62 243.71"/><polygon class="cls-20" points="200.49 307.19 286.9 242.56 281.44 235.41 195.03 300.03 200.49 307.19"/><path class="cls-21" d="M252,303.88a5.43,5.43,0,0,0,4.86,5.92,2.83,2.83,0,0,0,.58,0,5.4,5.4,0,0,0,5.4-4.81l11.09-102.55.11-.93v0a3.17,3.17,0,0,0-1.85-2.12,8.79,8.79,0,0,0-7.76.14,2.87,2.87,0,0,0-1.26,1.47l-.08.58Z" transform="translate(-60.97 -3.02)"/><path class="cls-12" d="M263.1,201.59a3,3,0,0,0,1.92,2.33,8.61,8.61,0,0,0,7.72-.14,2.68,2.68,0,0,0,1.2-1.3l.11-.93v0a3.17,3.17,0,0,0-1.85-2.12,8.79,8.79,0,0,0-7.76.14,2.87,2.87,0,0,0-1.26,1.47Z" transform="translate(-60.97 -3.02)"/><path class="cls-22" d="M263.93,201.31v.11a2.56,2.56,0,0,0,1.63,1.83,7.13,7.13,0,0,0,6.45-.11,2.21,2.21,0,0,0,1-1.07l.07-.79v0l3.62-48.16.07-.79v0a2.68,2.68,0,0,0-1.52-1.76,7.34,7.34,0,0,0-6.49.15,2.19,2.19,0,0,0-1,1.22l-.07.46L264,200.81Z" transform="translate(-60.97 -3.02)"/><path class="cls-12" d="M267.67,152.33a2.47,2.47,0,0,0,1.6,1.95,7.19,7.19,0,0,0,6.43-.12,2.22,2.22,0,0,0,1-1.08l.09-.78v0a2.62,2.62,0,0,0-1.54-1.76,7.28,7.28,0,0,0-6.46.12,2.29,2.29,0,0,0-1.06,1.22Z" transform="translate(-60.97 -3.02)"/><path class="cls-13" d="M130.77,166.11,101.11,149a2,2,0,0,0-.43-.24h0a2.74,2.74,0,0,0-2.48.3c-2.27,1.3-4.1,4.77-4.1,7.75,0,1.71.6,2.89,1.54,3.35l29.76,17.14.1-.82a3.91,3.91,0,0,0,.86-.37c2.26-1.29,4.09-4.76,4.09-7.74a5.35,5.35,0,0,0-.33-2Z" transform="translate(-60.97 -3.02)"/><path class="cls-23" d="M111,360.92c0,.05,0,.06,0,.1a3.59,3.59,0,0,0,.17,1.16,6.22,6.22,0,0,0,.39.93,5.06,5.06,0,0,0,.91,1.36,6.49,6.49,0,0,0,1.38,1,5.9,5.9,0,0,0,3.62.93c.8-.14,1.27-.78,1.82-1.36.72-.79,1.34-1.65,2-2.51,1.88-2.58,3.59-5.31,5.25-8,1-1.51,1.85-3,2.72-4.45,0,0,7.32-24.87,10.44-35.63,0,0,0-.07,0-.11a3.5,3.5,0,0,0,.11-.61,2.87,2.87,0,0,0-.19-1.25s0-.08-.07-.11v0a.89.89,0,0,0-.29-.36,5.5,5.5,0,0,1-.51-.43,4.51,4.51,0,0,0-.87-.5,8.62,8.62,0,0,0-4.6-.57,5.44,5.44,0,0,0-2.64.93,2.66,2.66,0,0,0-.4.36c-.08.1-.18.18-.26.28a.33.33,0,0,1,0,.15,5.12,5.12,0,0,0-.26.89.17.17,0,0,0,0,.11c-2,6.78-8.41,28.49-8.56,29.07-.79,3.3-2.39,6.2-6.92,11.8-.14.18-.33.4-.47.61a14.44,14.44,0,0,0-2.61,4.81,4.62,4.62,0,0,0-.18,1.15A.52.52,0,0,0,111,360.92Z" transform="translate(-60.97 -3.02)"/><path class="cls-2" d="M115.65,365.46a3.55,3.55,0,0,0,1.81-1.36c.72-.79,1.34-1.65,2-2.51,1.89-2.59,3.59-5.31,5.26-8,.94-1.51,1.85-3,2.72-4.45,0,0,7.32-24.87,10.44-35.63,0,0,0-.07,0-.11a2.76,2.76,0,0,0,.11-.61,3.09,3.09,0,0,0-.18-1.26s0-.07-.07-.1v0a1.1,1.1,0,0,0-.29-.36l-.16-.13a6.55,6.55,0,0,1,.67.18,4.51,4.51,0,0,1,.87.5,5.5,5.5,0,0,0,.51.43.89.89,0,0,1,.29.36v0c.07,0,.11.07.07.11a2.87,2.87,0,0,1,.19,1.25,3.5,3.5,0,0,1-.11.61s0,.07,0,.11c-3.12,10.76-10.44,35.63-10.44,35.63-.87,1.47-1.77,2.94-2.72,4.45-1.66,2.69-3.37,5.42-5.25,8-.65.86-1.27,1.72-2,2.51-.55.58-1,1.22-1.82,1.36a5.9,5.9,0,0,1-3.62-.93c-.15-.09-.28-.22-.42-.32A4.51,4.51,0,0,0,115.65,365.46Z" transform="translate(-60.97 -3.02)"/><path class="cls-3" d="M111,360.67a.52.52,0,0,0,0,.25c.36,2,3.44-1.26,4.17-1.87A29.75,29.75,0,0,0,119,355a34,34,0,0,0,5.29-9.69c.69-2,1.2-4,1.74-6,2.25-8.68,4.6-17.29,6.52-26l.8-2.76a5.44,5.44,0,0,0-2.64.93,2.66,2.66,0,0,0-.4.36c-.08.1-.18.18-.26.28a.33.33,0,0,1,0,.15,5.12,5.12,0,0,0-.26.89.17.17,0,0,0,0,.11c-2,6.78-8.41,28.49-8.56,29.07-.79,3.3-2.39,6.2-6.92,11.8-.14.18-.33.4-.47.61a14.44,14.44,0,0,0-2.61,4.81A4.62,4.62,0,0,0,111,360.67Z" transform="translate(-60.97 -3.02)"/><path class="cls-24" d="M129.74,313.23c0,.9.72,1.79,2.07,2.4,2.31,1.08,5.54.9,7.21-.35a2.73,2.73,0,0,0,.76-.9,1.76,1.76,0,0,0,.14-.61,2.66,2.66,0,0,0-.21-1.26,2.55,2.55,0,0,0-.33-.5l-.54-.43a4.55,4.55,0,0,0-.84-.5c-2.28-1-5.51-.86-7.25.36a1.48,1.48,0,0,0-.39.36,1.35,1.35,0,0,0-.26.28s0,.07-.07.15l0,0a7.42,7.42,0,0,1-.21.76.06.06,0,0,0,0,.1A.13.13,0,0,0,129.74,313.23Z" transform="translate(-60.97 -3.02)"/><path class="cls-25" d="M130.59,313.16c0,.68.57,1.36,1.67,1.8a7,7,0,0,0,5.92-.26,1.85,1.85,0,0,0,.63-.66,7.43,7.43,0,0,1,.24-.71v0c5.68-19.71,17.29-58.89,17.53-60a3.19,3.19,0,0,1,.12-.57c0-.65-.6-1.3-1.58-1.77a6.26,6.26,0,0,0-5.5.26,1.78,1.78,0,0,0-.57.6,0,0,0,0,1,0,0c0,.17-.09.35-.15.56a.22.22,0,0,0,0,.15c-2.87,9.79-13.17,43.5-18,59.87l0,0C130.74,312.68,130.65,312.92,130.59,313.16Z" transform="translate(-60.97 -3.02)"/><path class="cls-18" d="M148.84,252.51c0,.68.54,1.36,1.56,1.81a6,6,0,0,0,5.5-.27,1.91,1.91,0,0,0,.69-.8,3.07,3.07,0,0,1,.12-.56c0-.65-.6-1.3-1.59-1.78a6.23,6.23,0,0,0-5.5.27,1.85,1.85,0,0,0-.57.59,0,0,0,0,1,0,0,4.71,4.71,0,0,1-.15.56A.22.22,0,0,0,148.84,252.51Z" transform="translate(-60.97 -3.02)"/><path class="cls-5" d="M61,393c0,43.08,26.46,62.89,59.1,44.22s59.11-68.71,59.11-111.79-26.46-62.9-59.11-44.25S61,349.9,61,393Zm9.87,1.31c0-40.73,22.17-86.74,52.74-104.21,7-4,13.76-8,19.87-8,17.21,0,30,18.59,30,45.34,0,40.73-26.45,86-57,103.54-7,4-13.68,6-19.81,6-8.08,0-14.73-3.54-19.72-10.55C71.24,418.58,70.84,408.3,70.84,394.3Z" transform="translate(-60.97 -3.02)"/><path class="cls-12" d="M67.39,396.92c0,43.08,26.46,62.89,59.1,44.22s59.11-68.71,59.11-111.79-26.47-62.9-59.11-44.25S67.39,353.83,67.39,396.92Zm7.3,0c0-40.73,24.88-88.08,55.45-105.55A38.7,38.7,0,0,1,149.87,286c17.21,0,28.42,16.58,28.42,43.33,0,40.72-24.88,88-55.45,105.54-7,4-13.68,6.05-19.81,6.05-8.09,0-14.73-3.54-19.72-10.55C77.66,422.51,74.69,410.92,74.69,396.92Z" transform="translate(-60.97 -3.02)"/><path class="cls-13" d="M76.6,397.5c0,13.81,2.93,25.25,8.5,33,4.92,6.91,11.48,10.41,19.45,10.41,6,0,12.61-2,19.55-6,30.17-17.26,54.72-64,54.72-104.14,0-26.39-11-43.44-28-43.44-6,0-12.61,2-19.55,6C101.14,310.6,76.6,357.32,76.6,397.5Zm0,1.05c-3.23-37.12,27.66-90.8,55.38-106.64,5.81-3.33,16.42-5.49,21.18-5.49,12.61,0,22.65,21.89,22.65,43.95,0,37.26-25.52,86.43-53.23,102.26-5.84,3.33-13.71,7.4-18.46,7.4-5.67,0-14.52-4.15-18.13-9.19C81.29,424.28,77.91,413.69,76.6,398.55Z" transform="translate(-60.97 -3.02)"/><path class="cls-14" d="M75.43,394.72c0,14,1.21,24.26,6.86,32.12,5,7,9.78,11.87,17.86,11.87,6.09,0,12.76-2,19.79-6,30.56-17.51,55.42-64.8,55.42-105.49,0-26.73-11.13-40.43-28.31-40.43-6.12,0-12.31,4.8-19.34,8.82C97.15,313,75.43,354,75.43,394.72Zm0,0c0-39.58,24.07-85.5,53.65-102.4,6.45-3.66,12.5-5.56,18-5.56,15,0,24.69,15.86,24.69,40.43,0,39.54-24,85.47-53.61,102.37-6.49,3.7-12.54,5.56-18,5.56-7,0-12.43-2.94-16.74-9C78.19,418.83,75.43,408,75.43,394.72Z" transform="translate(-60.97 -3.02)"/><path class="cls-2" d="M120.78,300.41l.28,129.88h.56l-.28-130.4C121.16,300,121,300.23,120.78,300.41Z" transform="translate(-60.97 -3.02)"/><path class="cls-2" d="M102.2,438l.53.13,17.91-73.27.4-1.57,0-.16v0l0-.11,0-.1v0l0,0v0l.08-.37v0l0-.08,0-.05v-.06l0-.1,0-.11,0-.1,0-.13.24-.94,17.11-70a6,6,0,0,0-.66.34l-16.45,67.36-.48,1.89-.08.36-.08.29-.1.47-.06.21,0,.08,0,.1v.11l0,.08,0,.1,0,.1,0,.06v0l0,.08,0,.11v.05l0,.1,0,.16,0,0v0l0,.19-.1.47-.16.6-.11.42-.58,2.43Z" transform="translate(-60.97 -3.02)"/><path class="cls-2" d="M87.32,431.16c.13.19.24.34.34.52l31.87-64.59,1.11-2.25.42-.86.13-.24.19-.39.05-.13.06-.08,0-.08,0-.08,0-.05v0l0,0,.08-.16,0,0v-.05l0,0v0h0l0-.1v0l.16-.34,0,0,.11-.24.21-.39.77-1.57,36-72.8-.5-.24-36.95,74.82v0l0,.06-.16.28,0,.06-.06.1v0l0,0,0,.06,0,.05,0,.08v0l-.13.26,0,.06v0l0,.05,0,0L121,363v0l-.16.34-.29.58-.4.76Z" transform="translate(-60.97 -3.02)"/><path class="cls-2" d="M119.37,364.39,78.91,413.56c0,.26.06.5.08.73l41.23-50.05.29-.34.53-.63,0,0,0,0,.13-.18,0,0,0,0,0-.06,0,0h0l.05-.1h0v0l.08-.08.08-.1.13-.13.24-.32,0,0,.24-.29.61-.76,46.67-56.76-.45-.34-46,55.95-1.48,1.78v0l0,.06-.18.18,0,0,0,.05-.06.08-.08.08,0,.08,0,.05-.06.05-.08.08v0l0,0-.06,0-.05.08-.08.1-.18.24h0v0l0,0-.21.26Z" transform="translate(-60.97 -3.02)"/><path class="cls-2" d="M75,398.53l44.33-34.14,1-.75.42-.32.26-.21v0l.16-.11h0v0h0v0l.08-.08h0l.18-.13.06-.05,0,0,0,0h0l0,0v0h0l.13-.1,0,0,.61-.47,1.08-.81L173.39,323l-.34-.45L122.86,361l-.53.42-.71.55-.16.13h0l-.05.05h0v0l0,0h0l0,0v0h0l0,0-.16.11v0h0l-.06,0,0,0-.06,0-.05.08-.1.08-.06,0-.1.08-.21.19h0l0,0-.87.68L75.07,397.83A5.47,5.47,0,0,0,75,398.53Z" transform="translate(-60.97 -3.02)"/><polygon class="cls-2" points="15.35 380.3 58.48 360.65 59.35 360.23 59.51 360.15 59.96 359.97 59.99 359.97 59.99 359.94 60.06 359.91 60.09 359.89 60.14 359.86 60.2 359.86 60.2 359.83 60.28 359.81 60.46 359.73 60.49 359.73 60.49 359.7 60.59 359.68 60.65 359.65 60.7 359.63 60.73 359.6 60.75 359.6 60.78 359.57 60.8 359.57 61.07 359.44 61.1 359.44 62.63 358.74 112.42 335.96 112.18 335.46 62.65 358.14 61.28 358.76 61.15 358.82 60.65 359.05 60.49 359.1 60.49 359.13 60.41 359.16 60.38 359.16 60.38 359.18 60.36 359.21 60.28 359.21 60.25 359.23 60.2 359.23 60.2 359.26 60.14 359.29 60.09 359.29 59.99 359.34 59.96 359.37 59.85 359.39 59.85 359.42 59.75 359.47 59.67 359.5 59.56 359.55 59.43 359.6 58.72 359.94 58.06 360.23 15.43 379.67 15.35 380.3"/><path class="cls-2" d="M78.83,371.52l40.2-8.28,1.29-.26,0,0h0l.18,0h0l.42-.11h.11v0h0l.29-.05h0l.1,0h.06l.08,0h0l.06,0,.13,0,.45-.08.39-.08,47.92-9.85-.13-.53-46.94,9.65-1.06.21-.53.11,0,0-.37.08-.16,0h-.11l0,0h-.08l0,0h-.08l-.08,0-.13,0-.16,0-.08,0-.1,0-.21,0-.08,0-.35.08-2,.39L79,371A4.27,4.27,0,0,0,78.83,371.52Z" transform="translate(-60.97 -3.02)"/><path class="cls-2" d="M80.37,362.09l37.63.81,1.69.06h.87l.37,0h.69l.21,0h.79l1.74.05,43.51,1.15,0-.55-45.15-1.18-.68,0h-.37l-.08,0h-1v0h-.43l-.71,0-39-.84A4,4,0,0,0,80.37,362.09Z" transform="translate(-60.97 -3.02)"/><path class="cls-2" d="M84.59,353.66l34.94,8.72.42.13.45.11.21.05.08,0h.08l.11,0,.13,0h0l.06,0h0l.11,0,.1,0h0l.21,0v0h0l.18.05.13,0h0l.32.08,1,.23,41.1,10.51.13-.52-40.1-10.25-2-.5-.29-.1H122l0,0h-.1l-.08,0-.13-.06h-.08l-.05,0h0l-.13,0,0,0h0l0,0h-.08l-.08,0-.16-.05h0l-.13,0-.14,0-.47-.13-1.4-.37-34-8.46A5.1,5.1,0,0,0,84.59,353.66Z" transform="translate(-60.97 -3.02)"/><path class="cls-2" d="M88,345.66l30.71,16,1.5.79.06,0,.23.13.08.06.14.05,0,0,.11,0,.13.08v0h0l.06,0v0h0l0,0,.08,0v0l.06,0h0l.16.08.11.05,0,0,.32.16.34.18,1.06.55,37,19.14.24-.5-37.35-19.35-.61-.31-.71-.37-.13-.05h0v0l-.11-.05h0v0h0l0,0v0h0l-.22-.1h0l0,0,0,0,0,0-.08,0-.16-.1-.05,0-.08,0-.32-.16-1-.55-31.16-16.2A5.32,5.32,0,0,0,88,345.66Z" transform="translate(-60.97 -3.02)"/><path class="cls-2" d="M91.24,337.41l28.16,23.95.74.63.45.39,0,0,0,0,0,.05.13.11.13.13.08,0v0l.06,0v0h0l0,0v0l0,0,.08,0v0l.06,0,.16.16.13.1,0,0,.45.39.9.76,32.49,27.64.34-.39L123.36,364l-1.08-.94-.11-.08-.39-.34-.06,0v0h0l-.08-.08,0,0,0,0,0,0v0h0l-.16-.13,0,0h0v-.06h0l-.06-.05-.13-.1-.21-.19,0,0-.11-.11-1-.81-28.26-24Z" transform="translate(-60.97 -3.02)"/><path class="cls-2" d="M96.23,329.22l23.51,31.72.71,1,.16.21.11.13,0,.08,0,.08v0h0l.05.08.08.11.08.1v0l.06,0h0v0l0,0v0l.08.08v0l.18.24.19.26.1.13.87,1.18L149.46,401l.45-.31L123,364.42l-.72-.94L122,363l-.24-.32v0l0,0,0-.1,0,0v0h0l0-.05h0v-.05l-.05-.05-.11-.13v0l0-.05,0,0-.21-.28-.18-.24-.11-.18-.55-.74-23.7-32C96.42,328.85,96.34,329,96.23,329.22Z" transform="translate(-60.97 -3.02)"/><path class="cls-2" d="M102.2,319.42l18,41.23.47,1.1.08.21.08.13,0,.08.05.11v0l0,.05,0,.08v0l.08.16,0,.07,0,.11v0l0,0v0l0,0,0,.08v0l.16.34.24.55.26.6,20.33,46.92.51-.21-20.13-46.42-.47-1.13-.16-.36-.13-.29,0,0-.1-.29,0-.05,0-.1v0h0v-.08l0-.08-.08-.15v-.05l0,0,0-.05,0-.11,0,0-.29-.65-.08-.16-.47-1.15-17.94-41.08A3.53,3.53,0,0,0,102.2,319.42Z" transform="translate(-60.97 -3.02)"/><path class="cls-2" d="M111.33,309.38,120.51,360l.26,1.44,0,.39,0,.1.05.24v.05l0,.11v.1l0,.05v.05l0,.14v.1l0,0v.08l0,.08V363l0,.11v0l0,.08.1.55.43,2.43,10,55.86.56-.11L121.88,364.5l-.16-.89,0-.34,0-.13,0,0V363l0-.05v0l0-.18v0l0-.05,0-.18v-.08l0-.05,0-.13v-.08l0-.11,0-.1,0-.13-.24-1.33-.08-.47-9.28-51.18A5,5,0,0,0,111.33,309.38Z" transform="translate(-60.97 -3.02)"/><path class="cls-15" d="M74.57,397c0,14,3,25.58,8.62,33.44,5,7,11.64,10.55,19.72,10.55,6.09,0,12.76-2.05,19.79-6,30.55-17.51,55.42-64.8,55.42-105.49,0-26.73-11.13-44-28.31-44-6.12,0-11.77,1.24-19,4.85C98.37,306.37,74.57,356.22,74.57,397Zm3.62,0c0-39.58,24.07-85.51,53.64-102.41,6.46-3.66,12.51-5.56,18-5.56,15,0,24.68,15.86,24.68,40.44,0,39.54-24,85.47-53.6,102.37-6.49,3.69-12.54,5.56-18,5.56-7,0-12.43-2.94-16.74-9C81,421.06,78.19,410.22,78.19,397Z" transform="translate(-60.97 -3.02)"/><path class="cls-16" d="M137.48,356a2.36,2.36,0,0,0-.18-.57,1.12,1.12,0,0,0-.82-.61c-.68-.11-1-.82-1-1.72a4.48,4.48,0,0,1,.24-1.4c.07-.23.18-.45.26-.67s.28-.28.45-.37l.38-.2a2.15,2.15,0,0,0,.48-.3,1.52,1.52,0,0,0,.42-1,5.82,5.82,0,0,0-.11-1.18,3.81,3.81,0,0,1-.08-.59,3,3,0,0,0,0-.42,1.63,1.63,0,0,0-.63-1.2,1.3,1.3,0,0,0-1.34.1l0,0c-1.18.7-2-.09-2-1.48a4.51,4.51,0,0,1,.29-1.52c.86-2.39-.29-3.84-1.71-3a3.5,3.5,0,0,0-1,1c-1.34,1.81-3,1.5-3-.53v-.05c0-2.76-2.73-2.16-3.74.82a4.3,4.3,0,0,1-1.74,2.35,1.16,1.16,0,0,1-1.75-.36c-1-1.81-3.74.71-3.74,3.41v.06a4.71,4.71,0,0,1-2,3.82,1.42,1.42,0,0,1-1,.21c-1.43-.32-3,2.12-3,4a2.28,2.28,0,0,0,.29,1.19c.81,1.31-.16,4.09-1.71,5l0,0a4.65,4.65,0,0,0-2,3.82c0,.87.31,1.57,1,1.68s1,.82,1,1.72a5,5,0,0,1-1,2.89c-1.81,2.36-1.09,5.56,1,4.39l0,0c1.18-.7,2,.09,2,1.48a4.45,4.45,0,0,1-.29,1.51c-.86,2.4.3,3.84,1.71,3,.34-.19.9,0,1.24-.45,1.34-1.82,2.82-2,2.82,0v.05c0,1.68,1.3,2.36,2.33,1.77a3.72,3.72,0,0,0,1.66-2.19c.38-1.11.81-2.36,1.5-2.75a1.15,1.15,0,0,1,1.74.36,1.09,1.09,0,0,0,.82.6,1.45,1.45,0,0,0,.51,0c.23-.05.46-.05.69-.09a1.64,1.64,0,0,0,.67-.27,2.85,2.85,0,0,0,.63-.71,1.32,1.32,0,0,0,.16-.25,1.93,1.93,0,0,0,.15-.89v-.48a3.24,3.24,0,0,1,0-.44,4,4,0,0,0,.09-.84v-.06c0-1.54,1.12-2.35,2.14-3.19.3-.25.56-.91.89-.84a1.37,1.37,0,0,0,1-.2.91.91,0,0,1,.16-.11l.25-.07A2.23,2.23,0,0,0,133,370a1.78,1.78,0,0,0,.6-.56,2.94,2.94,0,0,0,.37-.55,1.78,1.78,0,0,0,.18-.55,2.36,2.36,0,0,0,0-.53l-.06-.7c0-.11,0-.24,0-.35a2,2,0,0,0,0-.24,2.35,2.35,0,0,0-.29-1.2,2.06,2.06,0,0,1-.21-.48.52.52,0,0,1,.05-.51,4.11,4.11,0,0,0,.67-1.23,3.3,3.3,0,0,0,0-1.13.81.81,0,0,1,0-.51,3.37,3.37,0,0,1,.33-.44,3.24,3.24,0,0,1,.8-.67l0,0,.32-.2a2.32,2.32,0,0,1,.37-.13,3.48,3.48,0,0,0,.69-.36,2.3,2.3,0,0,0,.84-1.19,2.35,2.35,0,0,0-.06-1.46c0-.1-.08-.2-.11-.3a1.1,1.1,0,0,1,0-.18C137.49,356.32,137.5,356.15,137.48,356ZM135.66,347c.57-.33,1,0,1,.76a2.45,2.45,0,0,1-1,2c-.57.33-1,0-1-.78A2.41,2.41,0,0,1,135.66,347Zm-2.18-.11a1.74,1.74,0,0,1-.73,1.38c-.4.23-.73,0-.73-.55a1.74,1.74,0,0,1,.73-1.38C133.15,346.15,133.48,346.39,133.48,346.93Zm-20.3,27.14a1.74,1.74,0,0,1-.73,1.39c-.41.23-.74,0-.74-.55a1.72,1.72,0,0,1,.74-1.38C112.85,373.3,113.18,373.54,113.18,374.07Zm-.1-5.45a1.28,1.28,0,0,1-.15-.25,3.16,3.16,0,0,1-.26-1,8.56,8.56,0,0,1,0-2.36,9.45,9.45,0,0,1,1-3,2.2,2.2,0,0,1,.41-.59.63.63,0,0,1,.86,0c.55.36,1,.86,1.6,1.18a2.06,2.06,0,0,0,2,.13,9.15,9.15,0,0,0,1.61-1.16c.25-.2,1.52-1.23,1.41-.57a7.52,7.52,0,0,1-.72,1.75c-.3.62-.62,1.23-1,1.82a22.48,22.48,0,0,1-2.27,3.19,7.23,7.23,0,0,1-1.45,1.35,2.35,2.35,0,0,1-2.26.29A2.14,2.14,0,0,1,113.08,368.62Zm18-19.08a5.36,5.36,0,0,1,.29,2.6,2.19,2.19,0,0,1-.18.7,1.65,1.65,0,0,1-.91.8c-.75.3-1.48.47-2.23.81a5.39,5.39,0,0,0-2.19,1.75,17.51,17.51,0,0,0-1.2,2.13c-.17.33-1.07,2.07-1.24,1.6a4.9,4.9,0,0,1,0-1.63c0-.63.12-1.26.23-1.91a24,24,0,0,1,1-3.87,11.13,11.13,0,0,1,1-2.07,6.22,6.22,0,0,1,2.28-2.24,3.31,3.31,0,0,1,1.22-.38h.26a1.38,1.38,0,0,1,.74.33A3.18,3.18,0,0,1,131,349.54Zm-9.2,3.72a7.13,7.13,0,0,0-.29,3.07,5.4,5.4,0,0,0,.67,1.56c.12.22.73,1.38.27,1.68a2.06,2.06,0,0,1-1.19.21,6.16,6.16,0,0,1-1.22-.14,4.68,4.68,0,0,1-2.06-1.09,2.76,2.76,0,0,1-.83-1.17,6,6,0,0,1,0-3.17,10.61,10.61,0,0,1,.59-1.78c.06-.14.13-.27.19-.39a7.35,7.35,0,0,1,.77-1.14,8.21,8.21,0,0,1,1.71-1.64,3.18,3.18,0,0,1,2.07-.71.46.46,0,0,1,.38.19c.18.27.06.81-.08,1.28C122.54,351.1,122.13,352.18,121.84,353.26Zm1.44,11a10.76,10.76,0,0,1,.66,3.06,7.73,7.73,0,0,1-.07,2,9.17,9.17,0,0,1-1.43,3.34,8.28,8.28,0,0,1-1.12,1.34l-.29.24a3.37,3.37,0,0,1-.93.5,3.16,3.16,0,0,1-1.67.16,2,2,0,0,1-1.46-1.17,1,1,0,0,1-.13-.55,2.67,2.67,0,0,1,.62-1.29c.65-.85,1.36-1.62,2-2.5a9.24,9.24,0,0,0,1.54-3,14.53,14.53,0,0,0,.33-2.29c0-.33.21-2.13.6-2s.55.56.75.89A7.11,7.11,0,0,1,123.28,364.28Zm4.56,3.44a1,1,0,0,1-.49.25c-.31,0-.42-.41-.48-.79-.15-.89-.19-1.86-.36-2.74a2.83,2.83,0,0,0-1.05-2,3.27,3.27,0,0,0-1.4-.26c-.22,0-1.39-.11-1-.7a5.33,5.33,0,0,1,1.18-1.19,11.61,11.61,0,0,1,1.35-1,9.26,9.26,0,0,1,2.68-1.29,2.62,2.62,0,0,1,1.4-.09,2.27,2.27,0,0,1,1.37,1.79,5.74,5.74,0,0,1,.16,1.54l0,.4a6.72,6.72,0,0,1-.32,1.33,12.71,12.71,0,0,1-1.09,2.48A8.07,8.07,0,0,1,127.84,367.72ZM132,341.09c.57-.32,1,0,1,.77a2.41,2.41,0,0,1-1,1.95c-.57.33-1,0-1-.77A2.44,2.44,0,0,1,132,341.09Zm-3.59,1.74c.4-.23.73,0,.73.55a1.75,1.75,0,0,1-.73,1.39c-.4.23-.73,0-.73-.55A1.74,1.74,0,0,1,128.43,342.83Zm-3.36-1c0-.08.07-.16.1-.23.15-.37.31-.72.47-1.08,0-.1.06-.22.15-.3a.92.92,0,0,1,.36-.17c.55-.12.77.44.77.88a2.43,2.43,0,0,1-1,1.95.65.65,0,0,1-.82-.06.72.72,0,0,1-.1-.68C125,342,125,341.89,125.07,341.79Zm-2.41,2.41c.41-.23.74,0,.74.54a1.72,1.72,0,0,1-.74,1.39c-.4.23-.73,0-.73-.55A1.72,1.72,0,0,1,122.66,344.2Zm-3.73-.1c.57-.33,1,0,1,.76a2.45,2.45,0,0,1-1,2c-.57.32-1,0-1-.78A2.41,2.41,0,0,1,118.93,344.1ZM117,350c.09-.08.1.06.12.12a1,1,0,0,1,.05.33,1.71,1.71,0,0,1-.73,1.38c-.11.06-.33.15-.44,0a.06.06,0,0,1,0-.07,2.74,2.74,0,0,1,.09-.39A3.07,3.07,0,0,1,117,350Zm-4.5,3.18a4,4,0,0,1,.32-.88c0-.1.1-.23.2-.28a.67.67,0,0,1,.28-.06c.45,0,.6.52.6.9a2.43,2.43,0,0,1-1,1.95c-.16.09-.72.25-.77-.06a.78.78,0,0,1,0-.16c0-.15.07-.3.11-.46C112.29,353.77,112.39,353.46,112.48,353.14Zm0,5.22c.2-.39.35.2.35.36a1.74,1.74,0,0,1-.73,1.39s-.19.13-.2,0a.93.93,0,0,1,0-.33l0-.08A6.58,6.58,0,0,1,112.49,358.36Zm-3,6.37c-.57.33-1,0-1-.77a2.44,2.44,0,0,1,1-1.95c.57-.33,1,0,1,.77A2.43,2.43,0,0,1,109.46,364.73Zm0,9.35c-.57.33-1,0-1-.77a2.43,2.43,0,0,1,1-1.95c.57-.33,1,0,1,.77A2.44,2.44,0,0,1,109.46,374.08Zm1.52-5.73c-.41.23-.73,0-.73-.55a1.71,1.71,0,0,1,.73-1.38c.41-.23.73,0,.73.54A1.71,1.71,0,0,1,111,368.35Zm1.77,12.1c-.57.32-.85,0-.85-.77a2.33,2.33,0,0,1,.85-2c.56-.32,1,0,1,.77A2.49,2.49,0,0,1,112.75,380.45Zm3.9-2.24c-.4.23-.73,0-.73-.55a1.74,1.74,0,0,1,.73-1.38c.4-.23.73,0,.73.55A1.74,1.74,0,0,1,116.65,378.21Zm2.31,3.34c-.57.32-1,0-1-.77a2.46,2.46,0,0,1,1-2c.57-.32,1,0,1,.78A2.44,2.44,0,0,1,119,381.55Zm3.53-4.74c-.41.23-.74,0-.74-.54a1.72,1.72,0,0,1,.74-1.39c.4-.23.73,0,.73.55A1.74,1.74,0,0,1,122.49,376.81Zm3.5.72c-.57.32-1,0-1-.77a2.43,2.43,0,0,1,1-1.95c.57-.33,1,0,1,.77A2.44,2.44,0,0,1,126,377.53Zm2.54-6.1c-.41.23-.74,0-.74-.55a1.74,1.74,0,0,1,.74-1.39c.4-.23.73,0,.73.55A1.75,1.75,0,0,1,128.53,371.43Zm3.79-2.17c-.57.32-1,0-1-.78a2.44,2.44,0,0,1,1-2c.57-.32,1,0,1,.77A2.46,2.46,0,0,1,132.32,369.26Zm.3-5.72c-.4.23-.73,0-.73-.55a1.74,1.74,0,0,1,.73-1.38c.41-.23.73,0,.73.54A1.71,1.71,0,0,1,132.62,363.54Zm1.47-8.4c-.41.24-.74,0-.74-.55a1.73,1.73,0,0,1,.74-1.38c.4-.23.73,0,.73.55A1.72,1.72,0,0,1,134.09,355.14Zm1.76,3.86c-.57.32-1,0-1-.77a2.46,2.46,0,0,1,1-2c.57-.32,1,0,1,.78A2.44,2.44,0,0,1,135.85,359Z" transform="translate(-60.97 -3.02)"/><path class="cls-17" d="M137.22,355.23c-.69-.1-1-.81-1-1.71a4.91,4.91,0,0,1,1-2.89c1.8-2.36,1.08-5.56-1-4.39l0,0c-1.19.71-2-.09-2-1.48a4.45,4.45,0,0,1,.29-1.51c.86-2.39-.29-3.84-1.71-3a3.5,3.5,0,0,0-1,1c-1.33,1.82-3,1.51-3-.53v-.05c0-2.76-2.74-2.16-3.75.82a4.26,4.26,0,0,1-1.74,2.35,1.17,1.17,0,0,1-1.75-.35c-1-1.82-3.74.7-3.74,3.41v.05a4.71,4.71,0,0,1-2,3.82,1.42,1.42,0,0,1-1,.21c-1.44-.32-3,2.12-3,4a2.25,2.25,0,0,0,.3,1.2c.8,1.3-.17,4.09-1.71,5l0,0a4.66,4.66,0,0,0-2,3.83c0,.87.32,1.56,1,1.68s1,.81,1,1.71a4.94,4.94,0,0,1-1,2.9c-1.8,2.36-1.08,5.55,1,4.39l0,0c1.18-.7,2,.09,2,1.48a4.47,4.47,0,0,1-.28,1.52c-.87,2.39.29,3.84,1.7,3a3.6,3.6,0,0,0,1-1c1.33-1.82,3-1.51,3,.53v0c0,1.68,1,2.12,2,1.53a4.21,4.21,0,0,0,1.72-2.34,4.31,4.31,0,0,1,1.75-2.35,1.15,1.15,0,0,1,1.74.35c1,1.81,3.75-.7,3.75-3.41V375a4.7,4.7,0,0,1,2-3.83,1.47,1.47,0,0,1,1-.2c1.44.32,3-2.12,3-4a2.35,2.35,0,0,0-.3-1.2c-.8-1.3.17-4.08,1.71-5l0,0a4.68,4.68,0,0,0,2-3.83C138.25,356,137.93,355.35,137.22,355.23Zm-.83-7.76c.57-.33,1,0,1,.77a2.43,2.43,0,0,1-1,1.95c-.57.33-1,0-1-.77A2.44,2.44,0,0,1,136.39,347.47Zm-2.17-.11a1.72,1.72,0,0,1-.74,1.39c-.4.23-.72,0-.72-.55a1.71,1.71,0,0,1,.72-1.38C133.89,346.58,134.22,346.83,134.22,347.36ZM113.91,374.5a1.74,1.74,0,0,1-.73,1.39c-.41.23-.73,0-.73-.55a1.71,1.71,0,0,1,.73-1.38C113.58,373.73,113.91,374,113.91,374.5Zm-.1-5.45a2,2,0,0,1-.14-.25,2.92,2.92,0,0,1-.27-1,8.56,8.56,0,0,1,0-2.36,9.79,9.79,0,0,1,1-3,2.37,2.37,0,0,1,.41-.59.65.65,0,0,1,.87,0c.55.35,1,.85,1.6,1.17a2.06,2.06,0,0,0,2,.13,9.15,9.15,0,0,0,1.61-1.16c.24-.19,1.52-1.22,1.4-.57a7.94,7.94,0,0,1-.71,1.75c-.3.63-.63,1.24-1,1.83a21.71,21.71,0,0,1-2.27,3.19,7.27,7.27,0,0,1-1.45,1.35,2.34,2.34,0,0,1-2.26.28A2.06,2.06,0,0,1,113.81,369.05Zm18-19.08a5.4,5.4,0,0,1,.28,2.61,2.49,2.49,0,0,1-.17.69,1.59,1.59,0,0,1-.92.8c-.75.31-1.48.47-2.23.81a5.39,5.39,0,0,0-2.18,1.75,15.79,15.79,0,0,0-1.2,2.13c-.17.33-1.08,2.08-1.25,1.6a4.92,4.92,0,0,1,0-1.63,18.73,18.73,0,0,1,.23-1.91,22,22,0,0,1,1-3.86,10.85,10.85,0,0,1,.94-2.08,6.18,6.18,0,0,1,2.28-2.23,3.18,3.18,0,0,1,1.22-.38h.27a1.36,1.36,0,0,1,.73.34A3.23,3.23,0,0,1,131.78,350Zm-9.2,3.72a7.33,7.33,0,0,0-.3,3.07,5.42,5.42,0,0,0,.68,1.56c.11.22.72,1.38.26,1.69a2.05,2.05,0,0,1-1.19.2,5.41,5.41,0,0,1-1.21-.14,4.61,4.61,0,0,1-2.07-1.09,2.84,2.84,0,0,1-.82-1.17,6.07,6.07,0,0,1,0-3.17,9.81,9.81,0,0,1,.6-1.78,3.54,3.54,0,0,1,.19-.39,6.52,6.52,0,0,1,.77-1.14,8.7,8.7,0,0,1,1.7-1.64,3.18,3.18,0,0,1,2.08-.7.48.48,0,0,1,.38.18,1.94,1.94,0,0,1-.08,1.28C123.28,351.53,122.87,352.61,122.58,353.69Zm1.44,11a11.19,11.19,0,0,1,.65,3.06,7.32,7.32,0,0,1-.07,2,9.12,9.12,0,0,1-1.43,3.35,8.2,8.2,0,0,1-1.12,1.33,3.23,3.23,0,0,1-.29.25,3.28,3.28,0,0,1-.92.49,3.11,3.11,0,0,1-1.68.17,2.07,2.07,0,0,1-1.46-1.17,1.19,1.19,0,0,1-.13-.56,2.6,2.6,0,0,1,.62-1.28c.66-.86,1.36-1.63,2-2.51a9.31,9.31,0,0,0,1.53-3,13.45,13.45,0,0,0,.33-2.29c0-.33.22-2.13.61-2s.54.56.74.89A8.31,8.31,0,0,1,124,364.71Zm4.55,3.45a1,1,0,0,1-.49.24c-.3,0-.42-.4-.48-.79-.14-.89-.19-1.86-.36-2.73a2.81,2.81,0,0,0-1-2,3.31,3.31,0,0,0-1.41-.26c-.22,0-1.38-.1-1-.69a5,5,0,0,1,1.17-1.2,12.52,12.52,0,0,1,1.35-1,9.47,9.47,0,0,1,2.68-1.28,2.53,2.53,0,0,1,1.4-.1,2.26,2.26,0,0,1,1.38,1.79,5.75,5.75,0,0,1,.15,1.54,2.69,2.69,0,0,1,0,.4,7.42,7.42,0,0,1-.31,1.33,13.72,13.72,0,0,1-1.09,2.48A8,8,0,0,1,128.57,368.16Zm4.19-26.64c.56-.32,1,0,1,.77a2.47,2.47,0,0,1-1,2c-.57.32-1,0-1-.78A2.45,2.45,0,0,1,132.76,341.52Zm-3.6,1.75c.41-.23.73,0,.73.54a1.71,1.71,0,0,1-.73,1.39c-.4.23-.73,0-.73-.55A1.74,1.74,0,0,1,129.16,343.27Zm-2.54-2.72c.57-.32,1,0,1,.77a2.46,2.46,0,0,1-1,2c-.57.32-1,0-1-.78A2.44,2.44,0,0,1,126.62,340.55Zm-3.22,4.08c.4-.23.73,0,.73.54a1.74,1.74,0,0,1-.73,1.39c-.41.23-.73,0-.73-.55A1.71,1.71,0,0,1,123.4,344.63Zm-3.74-.1c.57-.33,1,0,1,.77a2.44,2.44,0,0,1-1,1.95c-.57.33-1,0-1-.77A2.44,2.44,0,0,1,119.66,344.53Zm-2.5,5.76c.4-.23.73,0,.73.55a1.74,1.74,0,0,1-.73,1.38c-.41.23-.74,0-.74-.54A1.72,1.72,0,0,1,117.16,350.29Zm-3.58,2.19c.57-.32,1,0,1,.77a2.42,2.42,0,0,1-1,1.95c-.57.33-1,0-1-.77A2.44,2.44,0,0,1,113.58,352.48Zm-.74,6.13c.41-.23.74,0,.74.55a1.74,1.74,0,0,1-.74,1.39c-.4.23-.73,0-.73-.56A1.75,1.75,0,0,1,112.84,358.61Zm-2.65,6.56c-.57.32-1,0-1-.78a2.44,2.44,0,0,1,1-1.95c.58-.32,1,0,1,.77A2.43,2.43,0,0,1,110.19,365.17Zm0,9.34c-.57.33-1,0-1-.77a2.44,2.44,0,0,1,1-1.95c.58-.33,1,0,1,.78A2.39,2.39,0,0,1,110.19,374.51Zm1.52-5.72c-.4.23-.73,0-.73-.56a1.74,1.74,0,0,1,.73-1.38c.41-.23.74,0,.74.55A1.74,1.74,0,0,1,111.71,368.79Zm1.77,12.09c-.57.32-1,0-1-.78a2.41,2.41,0,0,1,1-1.94c.57-.33,1,0,1,.77A2.44,2.44,0,0,1,113.48,380.88Zm3.9-2.23c-.4.23-.73,0-.73-.56a1.72,1.72,0,0,1,.73-1.37c.41-.24.74,0,.74.54A1.72,1.72,0,0,1,117.38,378.65Zm2.31,3.33c-.57.33-1,0-1-.77a2.43,2.43,0,0,1,1-1.95c.57-.33,1,0,1,.77A2.43,2.43,0,0,1,119.69,382Zm3.53-4.74c-.4.23-.73,0-.73-.54a1.74,1.74,0,0,1,.73-1.39c.4-.23.73,0,.73.55A1.74,1.74,0,0,1,123.22,377.24Zm3.5.72c-.57.33-1,0-1-.77a2.43,2.43,0,0,1,1-1.95c.57-.33,1,0,1,.78A2.41,2.41,0,0,1,126.72,378Zm2.54-6.1c-.4.23-.73,0-.73-.55a1.74,1.74,0,0,1,.73-1.38c.4-.23.73,0,.73.54A1.74,1.74,0,0,1,129.26,371.86Zm3.79-2.17c-.56.32-1,0-1-.78a2.43,2.43,0,0,1,1-1.94c.57-.33,1,0,1,.76A2.46,2.46,0,0,1,133.05,369.69Zm.3-5.71c-.4.23-.73,0-.73-.56a1.75,1.75,0,0,1,.73-1.38c.41-.23.74,0,.74.55A1.75,1.75,0,0,1,133.35,364Zm1.47-8.4c-.41.23-.73,0-.73-.55a1.69,1.69,0,0,1,.73-1.38c.41-.24.73,0,.73.54A1.71,1.71,0,0,1,134.82,355.58Zm1.77,3.85c-.58.33-1,0-1-.77a2.41,2.41,0,0,1,1-2c.56-.33,1,0,1,.77A2.46,2.46,0,0,1,136.59,359.43Z" transform="translate(-60.97 -3.02)"/><path class="cls-18" d="M130.79,362.06l-6.08-3.75a1.17,1.17,0,0,0-.27-.15h0a1.7,1.7,0,0,0-1.56.19,6.12,6.12,0,0,0-2.59,4.89,2.18,2.18,0,0,0,1,2.11l6.13,3.78.07-.52a2.66,2.66,0,0,0,.53-.23,6.12,6.12,0,0,0,2.59-4.89,3.27,3.27,0,0,0-.22-1.24Z" transform="translate(-60.97 -3.02)"/><path class="cls-5" d="M131.54,364a6.11,6.11,0,0,1-2.58,4.89c-1.43.81-2.59-.05-2.59-1.94A6.12,6.12,0,0,1,129,362.1C130.39,361.29,131.54,362.15,131.54,364Z" transform="translate(-60.97 -3.02)"/><path class="cls-23" d="M123.62,365.21c0,.05,0,.06,0,.11a3.53,3.53,0,0,0,.17,1.15,5.54,5.54,0,0,0,.4.93,4.81,4.81,0,0,0,.9,1.36,6.23,6.23,0,0,0,1.38,1.05,5.92,5.92,0,0,0,3.62.93,3.59,3.59,0,0,0,1.82-1.37c.72-.78,1.34-1.65,2-2.51,1.88-2.58,3.59-5.31,5.25-8,1-1.51,1.85-3,2.72-4.45,0,0,7.32-24.86,10.44-35.63,0,0,0-.07,0-.11a3.33,3.33,0,0,0,.11-.61,3,3,0,0,0-.18-1.25s0-.07-.08-.11v0a.78.78,0,0,0-.29-.36c-.18-.15-.36-.29-.5-.43a6,6,0,0,0-.87-.51,8.66,8.66,0,0,0-4.61-.57,5.59,5.59,0,0,0-2.64.93,3.33,3.33,0,0,0-.4.36c-.07.11-.18.18-.26.29a.31.31,0,0,1,0,.14,5,5,0,0,0-.26.9.14.14,0,0,0,0,.11c-2,6.78-8.41,28.49-8.56,29.06-.79,3.3-2.39,6.21-6.92,11.81-.14.17-.32.39-.47.6a14.44,14.44,0,0,0-2.61,4.81,4.62,4.62,0,0,0-.18,1.15A.52.52,0,0,0,123.62,365.21Z" transform="translate(-60.97 -3.02)"/><path class="cls-2" d="M128.25,369.76a3.53,3.53,0,0,0,1.81-1.37c.72-.79,1.34-1.65,2-2.51,1.89-2.58,3.59-5.31,5.26-8,.94-1.51,1.85-3,2.72-4.45,0,0,7.32-24.86,10.44-35.63,0,0,0-.07,0-.11a2.76,2.76,0,0,0,.11-.61,3,3,0,0,0-.18-1.25s0-.07-.07-.11v0a1,1,0,0,0-.29-.35l-.16-.14c.22.08.47.09.68.18a6,6,0,0,1,.87.51c.14.14.32.28.5.43a.78.78,0,0,1,.29.36v0c.08,0,.11.07.08.11a3,3,0,0,1,.18,1.25,3.33,3.33,0,0,1-.11.61s0,.08,0,.11c-3.12,10.77-10.44,35.63-10.44,35.63-.87,1.47-1.77,2.94-2.72,4.45-1.66,2.69-3.37,5.42-5.25,8-.65.86-1.27,1.73-2,2.51a3.59,3.59,0,0,1-1.82,1.37,5.92,5.92,0,0,1-3.62-.93c-.15-.09-.28-.23-.42-.32A4.64,4.64,0,0,0,128.25,369.76Z" transform="translate(-60.97 -3.02)"/><path class="cls-3" d="M123.62,365a.52.52,0,0,0,0,.25c.36,2,3.44-1.25,4.17-1.86a29.75,29.75,0,0,0,3.84-4.09,34.23,34.23,0,0,0,5.29-9.69c.69-2,1.2-4,1.74-6,2.25-8.69,4.6-17.3,6.52-26l.8-2.76a5.59,5.59,0,0,0-2.64.93,3.33,3.33,0,0,0-.4.36c-.07.11-.18.18-.26.29a.31.31,0,0,1,0,.14,5,5,0,0,0-.26.9.14.14,0,0,0,0,.11c-2,6.78-8.41,28.49-8.56,29.06-.79,3.3-2.39,6.21-6.92,11.81-.14.17-.32.39-.47.6a14.44,14.44,0,0,0-2.61,4.81A4.62,4.62,0,0,0,123.62,365Z" transform="translate(-60.97 -3.02)"/><path class="cls-24" d="M142.34,317.52c0,.9.72,1.8,2.07,2.41,2.32,1.07,5.54.9,7.21-.36a2.63,2.63,0,0,0,.76-.9,1.71,1.71,0,0,0,.14-.61,2.62,2.62,0,0,0-.21-1.25,3,3,0,0,0-.33-.51l-.54-.43a4.55,4.55,0,0,0-.84-.5c-2.28-1-5.51-.86-7.25.36a1.92,1.92,0,0,0-.39.36,1.7,1.7,0,0,0-.26.29s0,.07-.07.14l0,0a6.78,6.78,0,0,1-.21.76s0,.07,0,.11A.11.11,0,0,0,142.34,317.52Z" transform="translate(-60.97 -3.02)"/><path class="cls-25" d="M143.19,317.45c0,.68.57,1.36,1.67,1.81a7,7,0,0,0,5.92-.27,1.92,1.92,0,0,0,.63-.65,5.93,5.93,0,0,1,.24-.71v0c5.68-19.71,17.29-58.9,17.53-60.05a3.07,3.07,0,0,1,.12-.56c0-.65-.6-1.3-1.58-1.78a6.22,6.22,0,0,0-5.5.27,1.76,1.76,0,0,0-.57.59,0,0,0,0,1,0,0,5.27,5.27,0,0,1-.15.56.22.22,0,0,0,0,.15c-2.87,9.8-13.17,43.5-18,59.87l0,0C143.34,317,143.25,317.21,143.19,317.45Z" transform="translate(-60.97 -3.02)"/><path class="cls-18" d="M161.44,256.81c0,.68.54,1.36,1.56,1.8a6,6,0,0,0,5.5-.27,1.88,1.88,0,0,0,.69-.79,3.19,3.19,0,0,1,.12-.57c0-.65-.6-1.3-1.59-1.77a6.26,6.26,0,0,0-5.5.26,1.78,1.78,0,0,0-.57.6,0,0,0,0,1,0,0c0,.17-.09.35-.15.56A.22.22,0,0,0,161.44,256.81Z" transform="translate(-60.97 -3.02)"/><path class="cls-7" d="M122.64,368.11c0,3.35,1.56,5.3,3.78,5.19a5.11,5.11,0,0,0,2.43-.46,12.1,12.1,0,0,0,4.22-4.52,15.06,15.06,0,0,0,2-7c0-4.38-3.11-6.4-6.41-4.51S122.64,363.74,122.64,368.11Zm10-6.64a2.48,2.48,0,0,0-1.61-2.32l-.55-.15c-.33-.08-.44-.64-.22-1.22a1.76,1.76,0,0,1,.62-.82.6.6,0,0,1,.4-.08l.55.15a2.78,2.78,0,0,1,1.67,1.35,5.4,5.4,0,0,1,.61,1.94l.13,1.05a1.79,1.79,0,0,1-.61,1.47.47.47,0,0,1-.12.09c-.36.2-.67,0-.74-.42Zm-7.09,10.25a1.65,1.65,0,0,1,.69-1,.78.78,0,0,1,.27-.09l.81-.05a4.42,4.42,0,0,0,2.91-1.89l.58-.73c.34-.43.75-.53.95-.24a.13.13,0,0,1,.06.07,1.07,1.07,0,0,1,.08.41,1.92,1.92,0,0,1-.39,1.11L131,370a8.77,8.77,0,0,1-2.34,2.09,4.26,4.26,0,0,1-1.8.6l-.81.05a.35.35,0,0,1-.28-.1A.91.91,0,0,1,125.58,371.72Zm-2.08-2.87-.09-.51.06-.66a9.92,9.92,0,0,1,.6-3.19,11.59,11.59,0,0,1,1.18-2.33l.76-1.42c.32-.52.36-1,.61-.75a.76.76,0,0,1,.18.52,1.85,1.85,0,0,1-.28.92l-.68,1.1a9,9,0,0,0-1.31,4.21l0,.86a1.74,1.74,0,0,1-.77,1.39C123.33,369.19,123.5,369.37,123.5,368.85Z" transform="translate(-60.97 -3.02)"/><path class="cls-2" d="M129.27,357.11c-3.31,1.89-6,7-6,11.34s2.69,6.38,6,4.49,6-7,6-11.34S132.58,355.22,129.27,357.11Zm-4.13,10.83a1.74,1.74,0,0,1-.77,1.39c-.4.2-.72-.05-.72-.57v-.05l0-.87a11.58,11.58,0,0,1,.67-3.44,13.22,13.22,0,0,1,1.2-2.52l.67-1.1c.32-.52.78-.73,1-.45a.71.71,0,0,1,.17.52,1.85,1.85,0,0,1-.28.92l-.67,1.1a8.89,8.89,0,0,0-1.31,4.2Zm7,1.67-.57.73a8.51,8.51,0,0,1-2.34,2.1,4.28,4.28,0,0,1-1.81.59l-.8.05c-.39,0-.58-.43-.43-1a1.65,1.65,0,0,1,.69-1,.56.56,0,0,1,.27-.08l.81-.06A4.42,4.42,0,0,0,130.9,369l.58-.73c.37-.46.82-.53,1-.16a1,1,0,0,1,.08.4A1.88,1.88,0,0,1,132.17,369.61Zm2.12-6.42-.11.08c-.36.2-.68,0-.74-.41l-.13-1.05a2.49,2.49,0,0,0-1.6-2.32l-.55-.15c-.35-.09-.45-.64-.23-1.22a1.56,1.56,0,0,1,.63-.82.58.58,0,0,1,.4-.07l.55.15a2.71,2.71,0,0,1,1.66,1.35,5.22,5.22,0,0,1,.61,1.93l.13,1A1.77,1.77,0,0,1,134.29,363.19Z" transform="translate(-60.97 -3.02)"/><path class="cls-23" d="M147.56,254.08a1.34,1.34,0,0,0,.14.36,3.83,3.83,0,0,0,1.52,1.94,5.67,5.67,0,0,0,2.76.89,4.92,4.92,0,0,0,4.06-1.36c1.27-1.36,1-5.63,4-3.48a2.39,2.39,0,0,1,.65,2.23,19.41,19.41,0,0,1-.43,2,8.28,8.28,0,0,0-.26,1.62,2.5,2.5,0,0,0,.73,2,6.35,6.35,0,0,0,2.5,1.15l1.63.43a8,8,0,0,0,3.51.43c1.89-.36,2.43-1.9,2.79-3.45,0-.25.11-.46.15-.68a.55.55,0,0,0,0-.25,14.86,14.86,0,0,0,.1-6.57,5.22,5.22,0,0,0-.25-.82c-2.06-6-9-8.58-14.82-7.36-3.23.68-7.32,3.91-8.52,7.5A5.49,5.49,0,0,0,147.56,254.08Z" transform="translate(-60.97 -3.02)"/><path class="cls-3" d="M147.81,250.67l.8.11a9.18,9.18,0,0,0,2.82-.22c2.83-.64,5.4-2.58,8.27-2.26,2.28.26,4.13,1.87,5.54,3.63s2.54,3.8,4.17,5.34a2.45,2.45,0,0,0,1.27.76,1,1,0,0,0,.62-.11,14.86,14.86,0,0,0,.1-6.57,5.22,5.22,0,0,0-.25-.82c-2.06-6-9-8.58-14.82-7.36C153.1,243.85,149,247.08,147.81,250.67Z" transform="translate(-60.97 -3.02)"/><path class="cls-2" d="M147.7,254.44a3.83,3.83,0,0,0,1.52,1.94,5.67,5.67,0,0,0,2.76.89,4.92,4.92,0,0,0,4.06-1.36c1.27-1.36,1-5.63,4-3.48a2.39,2.39,0,0,1,.65,2.23,19.41,19.41,0,0,1-.43,2,8.28,8.28,0,0,0-.26,1.62,2.5,2.5,0,0,0,.73,2,6.35,6.35,0,0,0,2.5,1.15l1.63.43a8,8,0,0,0,3.51.43c1.89-.36,2.43-1.9,2.79-3.45a3.25,3.25,0,0,1-.87.79,6.87,6.87,0,0,1-2.89.79,7.92,7.92,0,0,1-2.76-.18,3.67,3.67,0,0,1-2.25-1.47,7.58,7.58,0,0,1-.76-3.62,5.57,5.57,0,0,0-1.09-3A3,3,0,0,0,157.6,251c-1.24.32-1.93,1.54-2.83,2.4a6.17,6.17,0,0,1-6.38,1.33A3.86,3.86,0,0,1,147.7,254.44Z" transform="translate(-60.97 -3.02)"/><path class="cls-12" d="M160.89,228.49l50.49,16.21A41.45,41.45,0,0,0,247,240l18.09-11.74.65-.43a3.44,3.44,0,0,0,.87-2.54c0-2.62-1.67-5.71-3.66-6.86a2.6,2.6,0,0,0-2.14-.28l-.69.46L241,231a30.78,30.78,0,0,1-26.28,3.52l-50.45-16.22Z" transform="translate(-60.97 -3.02)"/><path class="cls-26" d="M261.35,220.55l-.12.13a17,17,0,0,1-2.87,2.42c-1.21.81-2.45,1.58-3.67,2.37l-9.09,5.89-4.61,3a30.78,30.78,0,0,1-26.28,3.52l-50.45-16.22-2.36,7.16-1-.32,3.37-10.23,50.45,16.22A30.78,30.78,0,0,0,241,231l7.13-4.62,8-5.18c1-.68,4.66-3.73,5.95-3a.58.58,0,0,1,.2.18.5.5,0,0,1,.05.32A3.31,3.31,0,0,1,261.35,220.55Z" transform="translate(-60.97 -3.02)"/><path class="cls-12" d="M175.19,197.82l-6.72,48.73a2.18,2.18,0,0,1,0,.51h0a3.07,3.07,0,0,1-1.59,2.16,10.49,10.49,0,0,1-9.3.2c-1.57-.8-2.34-1.91-2.26-3L162,197.6l.81.28a5.17,5.17,0,0,1,.79-.62,10.49,10.49,0,0,1,9.3-.19,5.06,5.06,0,0,1,1.62,1.22Z" transform="translate(-60.97 -3.02)"/><path class="cls-16" d="M172.94,195a10.53,10.53,0,0,0-9.3.2c-2.38,1.5-2.09,3.84.65,5.23a10.49,10.49,0,0,0,9.3-.2C176,198.68,175.68,196.34,172.94,195Z" transform="translate(-60.97 -3.02)"/><path class="cls-27" d="M174.58,192.9l-.81,4.51a1.34,1.34,0,0,1,0,.4h0a2.38,2.38,0,0,1-1.24,1.68,8.18,8.18,0,0,1-7.23.15c-1.22-.62-1.82-1.48-1.76-2.33l.81-4.58.63.22a3.5,3.5,0,0,1,.62-.48,8.15,8.15,0,0,1,7.23-.16,4.18,4.18,0,0,1,1.26,1Z" transform="translate(-60.97 -3.02)"/><path class="cls-16" d="M172.83,190.67a8.18,8.18,0,0,0-7.23.15c-1.86,1.17-1.63,3,.5,4.07a8.18,8.18,0,0,0,7.23-.15C175.19,193.57,175,191.75,172.83,190.67Z" transform="translate(-60.97 -3.02)"/><path class="cls-28" d="M178.29,182.66l-1.81,9.65a1.81,1.81,0,0,1,0,.52h0a3,3,0,0,1-1.59,2.16,10.47,10.47,0,0,1-9.29.19c-1.58-.79-2.34-1.9-2.26-3l1.81-9.75.81.28a4.25,4.25,0,0,1,.79-.62,10.49,10.49,0,0,1,9.3-.2,5.22,5.22,0,0,1,1.62,1.23Z" transform="translate(-60.97 -3.02)"/><path class="cls-7" d="M176,179.79a10.47,10.47,0,0,0-9.29.2c-2.39,1.5-2.09,3.84.65,5.23a10.49,10.49,0,0,0,9.3-.2C179.08,183.52,178.79,181.18,176,179.79Z" transform="translate(-60.97 -3.02)"/><path class="cls-5" d="M153.77,191.47l10.59-6.33a2.08,2.08,0,0,1,.38-.22h0a2.4,2.4,0,0,1,2.16.27,8.45,8.45,0,0,1,3.57,6.75,3,3,0,0,1-1.35,2.92l-10.66,6.37-.1-.71a3.85,3.85,0,0,1-.74-.32,8.45,8.45,0,0,1-3.57-6.76,4.53,4.53,0,0,1,.3-1.7Z" transform="translate(-60.97 -3.02)"/><path class="cls-23" d="M152.73,194.21A8.45,8.45,0,0,0,156.3,201c2,1.13,3.57-.07,3.57-2.67a8.47,8.47,0,0,0-3.57-6.76C154.33,190.41,152.73,191.6,152.73,194.21Z" transform="translate(-60.97 -3.02)"/><path class="cls-7" d="M132.76,164.62l-3.37-2a2.68,2.68,0,0,0-.57-.32h0a3.56,3.56,0,0,0-3.25.4c-3,1.7-5.38,6.25-5.38,10.17,0,2.24.8,3.79,2,4.38l3.49,2.06.14-1.07a5.38,5.38,0,0,0,1.12-.49c3-1.69,5.38-6.24,5.38-10.16a6.72,6.72,0,0,0-.45-2.57Z" transform="translate(-60.97 -3.02)"/><path class="cls-23" d="M134.33,168.73c0,3.92-2.4,8.47-5.37,10.17s-5.38-.1-5.38-4,2.41-8.47,5.38-10.17S134.33,164.82,134.33,168.73Z" transform="translate(-60.97 -3.02)"/><path class="cls-25" d="M192.36,210c-12.46-7.45-11.35-6.1-14.87-6.75-.3.13-.59.29-.91.46-4.65,2.45-10.32,4.13-23.81-4.44-1.94-1.23-3.86-2.52-5.89-3.56a8.47,8.47,0,0,1-4-5,19.1,19.1,0,0,0-1.58-4.46,16,16,0,0,0-3.37-3.75,41.38,41.38,0,0,0-5.76-4.17c-1.22-.76-2.47-1.48-3.74-2.16s-2.49-1.34-2.5-3a6,6,0,0,1,.53-2.68,7,7,0,0,1,1.16-1.56,3.7,3.7,0,0,1,1.11-.9c2-1,3.95.8,5.6,1.72a55.75,55.75,0,0,1,9.53,6.48,16.9,16.9,0,0,1,4.75,6c.84,2,1.12,4.57,2.91,6a64.7,64.7,0,0,0,6.52,4.27c11.47,7.28,14.88,5.49,17.37,4.18,3.45-1.82,6.53-.75,9.81.61,3.53,1.46,6.94,3.2,10.31,5,1.83,1,2.05.7,2,.86Z" transform="translate(-60.97 -3.02)"/><path class="cls-7" d="M194.16,198.45l-3.38-2a2.68,2.68,0,0,0-.57-.32h0a3.56,3.56,0,0,0-3.25.4c-3,1.7-5.38,6.25-5.38,10.17,0,2.24.8,3.79,2,4.38l3.5,2.06.14-1.07a5.31,5.31,0,0,0,1.11-.49c3-1.69,5.38-6.25,5.38-10.16a6.72,6.72,0,0,0-.45-2.57Z" transform="translate(-60.97 -3.02)"/><path class="cls-23" d="M195.73,202.56c0,3.92-2.41,8.47-5.38,10.17s-5.37-.1-5.37-4,2.4-8.47,5.37-10.17S195.73,198.64,195.73,202.56Z" transform="translate(-60.97 -3.02)"/><path class="cls-13" d="M223.22,217l-29.67-17.1a2.3,2.3,0,0,0-.43-.25h0a2.72,2.72,0,0,0-2.48.31c-2.26,1.29-4.1,4.76-4.1,7.75,0,1.71.61,2.89,1.55,3.34l29.75,17.15.11-.82a3.85,3.85,0,0,0,.85-.37c2.26-1.29,4.1-4.76,4.1-7.75a5.21,5.21,0,0,0-.34-2Z" transform="translate(-60.97 -3.02)"/><path class="cls-16" d="M224.41,220.08c0,3-1.83,6.46-4.09,7.75s-4.1-.08-4.1-3.06,1.83-6.46,4.1-7.75S224.41,217.1,224.41,220.08Z" transform="translate(-60.97 -3.02)"/><path class="cls-13" d="M147,198.21a1.57,1.57,0,0,0,.49.33l5.2,3,.31.21v0l-.05-.85a1.78,1.78,0,0,0,.39-.07,4,4,0,0,0,1-.54s-.1-.11-.21-.13l-.2-.13a.61.61,0,0,1-.21-.18,2,2,0,0,1-.47-1,3.52,3.52,0,0,1-.1-1.44c.18-2.22,1.58-4.54,3.14-5.15a1,1,0,0,1,.39-.11.72.72,0,0,1,.32-.05,1.3,1.3,0,0,1,.52.1l.23.13s.5.29.5.29a5.59,5.59,0,0,0-.63-3.17l.7,0-.1-.07-5.2-3,0,0a1.75,1.75,0,0,0-.89-.24,2.76,2.76,0,0,0-1.09.24c-2.4,1-4.58,4.58-4.87,8A5,5,0,0,0,147,198.21Z" transform="translate(-60.97 -3.02)"/><path class="cls-23" d="M152.41,201.24a2.61,2.61,0,0,0,.31.28,1.65,1.65,0,0,0,.31.18v0a2.35,2.35,0,0,0,.83.16,2.92,2.92,0,0,0,1.1-.24,3.76,3.76,0,0,0,.91-.51s-1.64-1-1.75-1l-.2-.13a.61.61,0,0,1-.21-.18,2,2,0,0,1-.47-1,3.52,3.52,0,0,1-.1-1.44c.18-2.22,1.58-4.54,3.14-5.15a1,1,0,0,1,.39-.11.72.72,0,0,1,.32-.05,1.3,1.3,0,0,1,.52.1l.23.13s.5.29.5.29l1.58.92a5,5,0,0,0-.91-3.63,2.5,2.5,0,0,0-.6-.44l-.1-.07a2.33,2.33,0,0,0-.76-.13,2.62,2.62,0,0,0-1.09.26c-2.39,1-4.58,4.55-4.86,8A4.93,4.93,0,0,0,152.41,201.24Z" transform="translate(-60.97 -3.02)"/><path class="cls-3" d="M240.81,191.34a6.8,6.8,0,0,0,4.45,3.51c7.05,2,11.77-3.88,17.51-6.53,6.92-3.24,14.4-4.47,21.91-5.43a27.81,27.81,0,0,0,3.54-.59c9-2.48,14.25-14.25,13.31-22.83a14.24,14.24,0,0,0-2-6.53s0,0,0,0-.1-.14-.14-.21c-6.21-9.7-21.81-9.62-31.45-5.3a20.07,20.07,0,0,0-10.63,10.67c-1.24,3.16-.59,6.38-2.36,9.37a31.05,31.05,0,0,1-6.75,8.26c-2.81,2.33-6.33,5.68-7.59,9.46a9.79,9.79,0,0,0-.45,1.89A7.64,7.64,0,0,0,240.81,191.34Z" transform="translate(-60.97 -3.02)"/><path class="cls-12" d="M257.08,169.24a26,26,0,0,1-5,5.83c-2.37,2.16-8.59,4.6-6.52,8.59a6.13,6.13,0,0,0,4.94,3.21,8.76,8.76,0,0,0,2-.14,18.37,18.37,0,0,0,8.8-4.06,60.71,60.71,0,0,1,10.62-7.49c6.44-3.75,14.84-4.05,20.52-9.19a10.58,10.58,0,0,0,3.37-9c-.56-4.63-3.28-7-7.49-8.67a22.73,22.73,0,0,0-13.57-.91c-5.59,1.38-12,4.67-14.28,10.27-1.06,2.58-1.08,5.46-1.9,8.12A15.64,15.64,0,0,1,257.08,169.24Z" transform="translate(-60.97 -3.02)"/><path class="cls-2" d="M240.81,191.34a6.8,6.8,0,0,0,4.45,3.51c7.05,2,11.77-3.88,17.51-6.53,6.92-3.24,14.4-4.47,21.91-5.43a27.81,27.81,0,0,0,3.54-.59c9-2.48,14.25-14.25,13.31-22.83a14.24,14.24,0,0,0-2-6.53A16.25,16.25,0,0,1,300.68,163a13.3,13.3,0,0,1-7.85,9.42,31.3,31.3,0,0,1-5.31,1.26c-9.92,1.9-19.11,6.46-27.55,11.91a54.22,54.22,0,0,1-6.92,3.82c-2.27,1.07-4.27,2-6.85,1.28a8.7,8.7,0,0,1-5.59-5.53,9.79,9.79,0,0,0-.45,1.89A7.64,7.64,0,0,0,240.81,191.34Z" transform="translate(-60.97 -3.02)"/><path class="cls-7" d="M338,244.68c0,3.35,1.57,5.3,3.78,5.19a5.11,5.11,0,0,0,2.43-.46,12.1,12.1,0,0,0,4.22-4.52,15.08,15.08,0,0,0,2-7c0-4.38-3.11-6.4-6.42-4.51S338,240.31,338,244.68Zm10-6.64a2.49,2.49,0,0,0-1.6-2.32l-.55-.15c-.34-.08-.44-.64-.23-1.22a1.71,1.71,0,0,1,.63-.82.59.59,0,0,1,.4-.08l.55.15a2.78,2.78,0,0,1,1.66,1.35,5.21,5.21,0,0,1,.62,1.94l.12,1.05a1.76,1.76,0,0,1-.61,1.47l-.11.09c-.37.2-.68,0-.74-.42ZM341,248.29a1.64,1.64,0,0,1,.68-1,.76.76,0,0,1,.28-.09l.8,0a4.44,4.44,0,0,0,2.92-1.89l.57-.74c.34-.42.75-.52.95-.23a.15.15,0,0,1,.07.07,1.07,1.07,0,0,1,.07.41,1.92,1.92,0,0,1-.39,1.11l-.57.73a8.77,8.77,0,0,1-2.34,2.09,4.35,4.35,0,0,1-1.8.6l-.82,0a.29.29,0,0,1-.27-.09A.89.89,0,0,1,341,248.29Zm-2.09-2.87-.09-.51.06-.66a9.89,9.89,0,0,1,.61-3.19,12.1,12.1,0,0,1,1.17-2.33l.77-1.42c.31-.52.35-1,.61-.75a.76.76,0,0,1,.17.52,1.94,1.94,0,0,1-.27.92l-.68,1.1a8.87,8.87,0,0,0-1.32,4.2l0,.87a1.75,1.75,0,0,1-.78,1.39C338.73,245.76,338.9,245.94,338.9,245.42Z" transform="translate(-60.97 -3.02)"/><path class="cls-2" d="M344.67,233.68c-3.31,1.89-6,7-6,11.34s2.68,6.38,6,4.49,6-7,6-11.34S348,231.79,344.67,233.68Zm-4.12,10.83a1.75,1.75,0,0,1-.78,1.39c-.4.2-.71-.05-.71-.57v-.05l0-.87a11.92,11.92,0,0,1,.68-3.44,13.81,13.81,0,0,1,1.19-2.52l.67-1.1c.32-.52.79-.73,1.05-.45a.75.75,0,0,1,.16.52,1.83,1.83,0,0,1-.27.92l-.67,1.1a8.79,8.79,0,0,0-1.32,4.2Zm7,1.67-.58.73a8.37,8.37,0,0,1-2.34,2.1,4.24,4.24,0,0,1-1.8.59l-.81.05c-.38,0-.57-.43-.43-1a1.71,1.71,0,0,1,.7-1,.56.56,0,0,1,.26-.08l.81-.06a4.44,4.44,0,0,0,2.92-1.89l.58-.73c.36-.46.81-.53,1-.16a.84.84,0,0,1,.09.4A1.88,1.88,0,0,1,347.58,246.18Zm2.12-6.42-.12.08c-.36.2-.68,0-.73-.42l-.14-1a2.48,2.48,0,0,0-1.6-2.32l-.55-.15c-.34-.09-.45-.64-.23-1.22a1.66,1.66,0,0,1,.63-.82.59.59,0,0,1,.4-.07l.55.15a2.68,2.68,0,0,1,1.66,1.35,4.88,4.88,0,0,1,.61,1.93l.14,1.05A1.83,1.83,0,0,1,349.7,239.76Z" transform="translate(-60.97 -3.02)"/><path class="cls-7" d="M250.69,282.92c.13.71.36,1.41.44,2.13a8,8,0,0,1-.21,2.71c-.38,1.72-1,3.36-1.49,5.05a26.76,26.76,0,0,0-1,8.77,3.71,3.71,0,0,0,1,2.75,2.63,2.63,0,0,0,2.83.1,6.55,6.55,0,0,0,2.11-2.08,20.28,20.28,0,0,0,3-6,12.16,12.16,0,0,0,.15-6.66c-.56-2-1.72-3.81-2.18-5.85a13.34,13.34,0,0,0-.58-2.44C253.48,278.31,250.15,279.9,250.69,282.92Z" transform="translate(-60.97 -3.02)"/><path class="cls-5" d="M253.27,329.12a14.11,14.11,0,0,0,3.36-.44c15.74-3.82,87.87-79.73,90.93-83l-2.64-2.45c-20.66,21.78-76.95,79-89.16,81.93-2.61.64-4.65.35-6.26-.89-3-2.29-4.63-7.95-4.74-16.34-.07-5.42,2.27-10,7.8-15.44,6.19-6,13.7-11,20.23-15,7.57-4.67,15.9-9.24,26.22-14.38,8-4,16.32-7.87,25.52-11.91,6.14-2.7,12.27-5.28,18.2-7.68,1.63-.65,3.25-1.31,4.89-1.94l-1.32-3.34c-1.65.64-3.29,1.3-4.93,2-6,2.41-12.14,5-18.32,7.72-9.24,4.06-17.64,8-25.67,12-10.42,5.19-18.84,9.81-26.51,14.54-6.7,4.14-14.41,9.21-20.85,15.5-4.19,4.08-9,9.83-8.88,18,.12,9.67,2.18,16.11,6.14,19.14A9.58,9.58,0,0,0,253.27,329.12Z" transform="translate(-60.97 -3.02)"/><path class="cls-13" d="M241.66,320.47l2.15,1-.15,4.07,2.61-.91.65,2.72,2.75-1.32,1.42,1.83,2.6-2.32,2.32,1.13,1.92-3.48,2.63.33,1.43-4.29,2.56-1.25.92-4,2.85-2.45-.3-3.48,2.31-2.76-.91-3.33,1.86-3.68-1.77-2,1.58-4.32-2.79-.35.37-4.18-2.78.94-.4-3.58-3,2.1-1.49-2.5-2.74,3.3L256,286.11l-2.12,3.81h-2.77l-1.27,4-2.93,1.48-.51,3.77-2.77,2.68.26,3.27-2.22,3.22.89,2.86-1.65,3.87,1.61,1.75Zm4.49-9.81c.25-.85.74-1.64,1.36-1.71l5.38-.58c.65-.07.91.82.52,1.79l-3.25,8a2.06,2.06,0,0,1-1,1.14.68.68,0,0,1-.8-.2c-.36-.34-.73-.66-1.07-1a5.41,5.41,0,0,1-.76-1.24,8.57,8.57,0,0,1-.58-3.39A10.53,10.53,0,0,1,246.15,310.66Zm1.59-6.31c.28-.78.55-1.57.86-2.34a18,18,0,0,1,1-2,14.78,14.78,0,0,1,2.51-3.31,8.49,8.49,0,0,1,2-1.76c.58-.25,1.1-.09,1.09.79l-.14,7.61a2.19,2.19,0,0,1-1.34,2.05s-5.46,1-5.47,1c-.37.07-.65-.17-.72-.63A2.74,2.74,0,0,1,247.74,304.35Zm9,7c.41-1-.26-2,.15-1.52l3.46,4a1.47,1.47,0,0,1,.12,1.35,3.2,3.2,0,0,1-.72,1.21c-.51.57-1,1.16-1.52,1.69a10.31,10.31,0,0,1-1.44,1.26,6.27,6.27,0,0,1-2.87,1.22c-.6.07-.69,1.07-1.17.75s.13-1.09.53-2Zm8.41-10.55c.36-.38.77-.5,1.05-.31s-.16-1.55-.13-1.14c.05.69.12,1.38.13,2.09a12.83,12.83,0,0,1-.13,2,16.45,16.45,0,0,1-1.19,4.14,14.21,14.21,0,0,1-1.36,2.83c-.51.68-1.14,1.07-1.51.57l-3.24-4.35c-.39-.52-.18-.27.47-.94Zm-1.47-3.26-5.47,5.28c-.66.64-.16-.64-.18-1.55l.26-6.88c0-.5-1.35-.65-1-1.09a1.67,1.67,0,0,1,.95-.62c.52-.14,1.07-.31,1.59-.4a3.66,3.66,0,0,1,1.36,0,3.37,3.37,0,0,1,2.13,1.34,3.91,3.91,0,0,1,1.06,1.73A2.51,2.51,0,0,1,263.64,297.51Z" transform="translate(-60.97 -3.02)"/><path class="cls-2" d="M244.16,321.89l2.16,1-.16,4.06,2.61-.9.66,2.72,2.75-1.33,1.42,1.83,2.59-2.32,2.32,1.13,1.93-3.47,2.62.32,1.44-4.29,2.56-1.24.91-3.95,2.86-2.45-.3-3.49,2.3-2.75-.91-3.33,1.86-3.68-1.76-2,1.58-4.32-2.8-.35.37-4.17-2.78.94-.39-3.58-3,2.09-1.5-2.49-2.74,3.3-2.28-1.65-2.12,3.81h-2.77l-1.26,4-2.93,1.48-.51,3.76-2.78,2.69.26,3.27-2.21,3.21.88,2.86-1.65,3.88,1.62,1.74Zm4.5-9.82c.24-.84.74-1.63,1.36-1.7l5.38-.58c.65-.07.9.81.51,1.78l-3.24,8.06a2.07,2.07,0,0,1-1,1.14.7.7,0,0,1-.8-.2c-.35-.34-.73-.66-1.06-1.05a4.73,4.73,0,0,1-.76-1.24,8.33,8.33,0,0,1-.58-3.39A10.16,10.16,0,0,1,248.66,312.07Zm1.59-6.31c.28-.78.54-1.57.85-2.34a17.93,17.93,0,0,1,1-2,14.24,14.24,0,0,1,2.5-3.31,8.75,8.75,0,0,1,2-1.77c.59-.24,1.11-.08,1.09.79l-.13,7.61a2.25,2.25,0,0,1-1.34,2.06l-5.47,1c-.37.07-.65-.18-.73-.64A2.92,2.92,0,0,1,250.25,305.76Zm7.45,6.4c.41-1,1.24-1.43,1.66-.94l3.46,4a1.5,1.5,0,0,1,.12,1.35,3.27,3.27,0,0,1-.73,1.21c-.5.57-1,1.17-1.52,1.7a9.68,9.68,0,0,1-1.44,1.25,6.21,6.21,0,0,1-2.86,1.23c-.6.06-1.42.33-1.9,0s-.65-.93-.25-1.84Zm9.43-12.07c.37-.38.78-.49,1.06-.31a1.25,1.25,0,0,1,.35,1c0,.69.11,1.37.12,2.09a11.62,11.62,0,0,1-.13,2,16.11,16.11,0,0,1-1.19,4.15,14.18,14.18,0,0,1-1.35,2.83c-.52.68-1.14,1.06-1.51.56L261.23,308a2.17,2.17,0,0,1,.52-2.38Zm-1-1.17-5.46,5.29c-.66.63-1.33.37-1.35-.53l-.13-7.45a2.67,2.67,0,0,1,.54-1.54,1.67,1.67,0,0,1,.94-.63c.53-.13,1.07-.3,1.6-.4a4.14,4.14,0,0,1,1.36,0,3.42,3.42,0,0,1,2.13,1.34,4,4,0,0,1,1.06,1.74A2.53,2.53,0,0,1,266.14,298.92Z" transform="translate(-60.97 -3.02)"/><path class="cls-18" d="M132.74,362.67l-1.42-.89a1.14,1.14,0,0,0-.32-.18h0a2,2,0,0,0-1.82.22,7.1,7.1,0,0,0-3,5.7A2.56,2.56,0,0,0,127.3,370l1.49.92.08-.6a3.31,3.31,0,0,0,.63-.27,7.13,7.13,0,0,0,3-5.7,3.87,3.87,0,0,0-.25-1.44Z" transform="translate(-60.97 -3.02)"/><path class="cls-5" d="M133.62,365a7.13,7.13,0,0,1-3,5.7c-1.66.95-3-.06-3-2.25a7.13,7.13,0,0,1,3-5.7C132.27,361.77,133.62,362.78,133.62,365Z" transform="translate(-60.97 -3.02)"/><path class="cls-18" d="M261.78,304.75l-1.43-.89a1.39,1.39,0,0,0-.31-.18h0a2,2,0,0,0-1.83.22,7.13,7.13,0,0,0-3,5.7,2.54,2.54,0,0,0,1.14,2.46l1.49.92.07-.6a2.85,2.85,0,0,0,.63-.27,7.13,7.13,0,0,0,3-5.7,3.77,3.77,0,0,0-.25-1.43Z" transform="translate(-60.97 -3.02)"/><path class="cls-5" d="M262.66,307.06a7.1,7.1,0,0,1-3,5.69c-1.66.95-3-.05-3-2.25a7.13,7.13,0,0,1,3-5.7C261.31,303.85,262.66,304.86,262.66,307.06Z" transform="translate(-60.97 -3.02)"/><path class="cls-18" d="M348.24,239l-1.42-.9a2,2,0,0,0-.32-.18h0a2,2,0,0,0-1.82.23,7.1,7.1,0,0,0-3,5.69,2.55,2.55,0,0,0,1.13,2.46l1.49.93.08-.6a3.31,3.31,0,0,0,.63-.27,7.14,7.14,0,0,0,3-5.7,3.83,3.83,0,0,0-.25-1.44Z" transform="translate(-60.97 -3.02)"/><path class="cls-5" d="M349.12,241.26a7.13,7.13,0,0,1-3,5.7c-1.66.95-3-.06-3-2.26a7.12,7.12,0,0,1,3-5.69C347.77,238.06,349.12,239.07,349.12,241.26Z" transform="translate(-60.97 -3.02)"/><path class="cls-29" d="M247.79,317.56l-2.22-1.21a.47.47,0,0,0-.12-.07h0a.79.79,0,0,0-.73.09,2.84,2.84,0,0,0-1.21,2.28,1,1,0,0,0,.46,1l2.24,1.22,0-.24a1.63,1.63,0,0,0,.25-.1,2.9,2.9,0,0,0,1.21-2.29,1.61,1.61,0,0,0-.1-.57Z" transform="translate(-60.97 -3.02)"/><path class="cls-7" d="M248.14,318.48a2.84,2.84,0,0,1-1.21,2.28c-.66.38-1.2,0-1.2-.9a2.86,2.86,0,0,1,1.2-2.28C247.6,317.2,248.14,317.6,248.14,318.48Z" transform="translate(-60.97 -3.02)"/><path class="cls-30" d="M250.54,318.71,248,317.3l-.15-.09h0a1,1,0,0,0-.85.11,3.32,3.32,0,0,0-1.4,2.66,1.17,1.17,0,0,0,.53,1.14l2.61,1.43,0-.28a1.3,1.3,0,0,0,.3-.13,3.32,3.32,0,0,0,1.4-2.66,1.71,1.71,0,0,0-.12-.67Z" transform="translate(-60.97 -3.02)"/><path class="cls-5" d="M251,319.78a3.32,3.32,0,0,1-1.4,2.66c-.78.44-1.41,0-1.41-1.05a3.34,3.34,0,0,1,1.41-2.66C250.32,318.29,251,318.76,251,319.78Z" transform="translate(-60.97 -3.02)"/><polygon class="cls-31" points="190.08 312.96 190.08 316.04 192.44 314.5 190.08 312.96"/><path class="cls-2" d="M241.93,324.27l14.56,8.32a5.92,5.92,0,0,0,5.27.21l6-3.44a1.65,1.65,0,0,0,.88-1.07l0-.11V328h0a2.17,2.17,0,0,0-1.16-1.52l-.13-.07-.34-.2.7-1.22L265.45,323l-1.3-.9L254,316.55,252.85,318l-1.8,1,1.24,1.21-3.33.55-3.23,1.09.57,1.78-.58.33-2.05-.74Zm19.2,0c-1,.55-.48,1.51-2,1.29a3.22,3.22,0,0,1-1.85-.56c-.1,0-.68-.65-.77-.7a6.6,6.6,0,0,1-2.65-2.25c-.32-.79-.14-.8.64-1.33a1.37,1.37,0,0,1,.2-.13l4.09,2.34,3.25,1.37Zm-3.2,5.94.23-.13.68-.39.67-.38,3.78-2.16a2.92,2.92,0,0,1,1.75-.28,3.62,3.62,0,0,1,.73.14l.4.16.2.1,0,0c.91.52,1,1.3.22,1.76l-5.35,3.06a3.45,3.45,0,0,1-3.09-.13h0C257.24,331.48,257.15,330.69,257.93,330.24Zm-11.47-4.92a4.6,4.6,0,0,1,1.77-.53,9.52,9.52,0,0,1,3.06.2,10.14,10.14,0,0,1,2.79,1.07,6.46,6.46,0,0,1,1.5,1.14,2.19,2.19,0,0,1,.72,2.2,1.92,1.92,0,0,1-.92,1Z" transform="translate(-60.97 -3.02)"/><polygon class="cls-2" points="195.52 326.49 195.52 329.57 180.96 321.25 180.96 318.17 195.52 326.49"/><path class="cls-2" d="M258.84,329.72l1.78.16L263,329l2.79-1.92,1.29-.89,1.63-1.12h0v3.15l0,.11a1.65,1.65,0,0,1-.88,1.07l-6,3.44a5.92,5.92,0,0,1-5.27-.21v-3.08l1.63.15Z" transform="translate(-60.97 -3.02)"/><path class="cls-3" d="M241.93,321.19l4.37,2.49,1.93,1.11,8.07,4.61.19.11a5.62,5.62,0,0,0,1.67.6,5.43,5.43,0,0,0,3.6-.39l4.41-2.52,1.36-.78.25-.14a1.6,1.6,0,0,0,.91-1.25,2.1,2.1,0,0,0-1.29-1.76L252.85,315l-1.8,1,1.24,1.21-6.57,3.75-2.05-.74Zm21.66,1.45a4.78,4.78,0,0,1-1.77.52,9.19,9.19,0,0,1-3.05-.2,10.31,10.31,0,0,1-2.8-1.06,6.41,6.41,0,0,1-1.49-1.15,2.19,2.19,0,0,1-.72-2.2,1.92,1.92,0,0,1,.92-1Zm3.1,3.31-.08.05-1.57.9-3.78,2.16a3.08,3.08,0,0,1-1.75.28,3.5,3.5,0,0,1-1.34-.41h0c-.91-.52-1-1.31-.22-1.76l1.69-1,2.4-1.38,1.27-.72.09-.05a3.51,3.51,0,0,1,3,.17l0,0C267.27,324.74,267.39,325.49,266.69,326Zm-19-3-1.19-.67a5.94,5.94,0,0,1,3.33-.55,10.56,10.56,0,0,1,4,1.14l.27.15a4.79,4.79,0,0,1,2.17,2.15,1.62,1.62,0,0,1-.67,2.07,1.37,1.37,0,0,1-.2.13L251.29,325Z" transform="translate(-60.97 -3.02)"/><path class="cls-10" d="M198.58,98.76a1.54,1.54,0,0,1-.52.76c-1.5,1.53-3,3-4.55,4.54q-6.75,6.59-13.92,12.77c-4.4,3.78-8.34,8.22-12.72,12.08a48.46,48.46,0,0,1-5.3,4l-6.77,4.67q-8,5.61-15.87,11.4c-2.64,1.92-5.26,3.87-7.85,5.82-2.22,1.64-3.74,3.9-5.8,5.66a48.35,48.35,0,0,0-5.59,6.5c-1.8,2.21-3.88,4.37-6.56,5.4a3.61,3.61,0,0,1-1.78.33,1.85,1.85,0,0,1-1.1-.46,1.21,1.21,0,0,1-.38-.46,1.91,1.91,0,0,1,.22-1.76,5.88,5.88,0,0,1,1.22-1.37,9.69,9.69,0,0,0,3.29-6.54c0-1.14-.47-2.47-1.57-2.73s-2.07.73-2.57,1.73a4,4,0,0,0-.26,3.64,7.44,7.44,0,0,1,.93,1.58,1.62,1.62,0,0,1-.07,1.1,2.79,2.79,0,0,1-3.24,1.37,6.62,6.62,0,0,1-3.07-2.2,14.85,14.85,0,0,0-2.71-2.72c-.74-.47-1.67-.88-2-1.69a3.69,3.69,0,0,0-.26-.9c-.24-.39-.78-.57-1-1-.75-1.21.91-3.11,1.66-3.89l4.33-4.41a9.81,9.81,0,0,1,4.21-3,12.51,12.51,0,0,1,3.11-.22c.65,0,1.28-.06,1.91-.13a23.7,23.7,0,0,0,7.83-2.38c3.78-1.9,6.57-4.89,9.42-8,3.47-3.75,6.9-7.51,10.32-11.32q4.71-5.27,9.34-10.64a42.68,42.68,0,0,1,4.55-4.57c5.4-4.52,11.89-8,16.51-13.5a58.07,58.07,0,0,0,4.79-6.89c.2-.31.37-.62.6-1,2.09-3.61,4.59-8.63,9.31-8.35a7.15,7.15,0,0,1,1.82.35,3,3,0,0,1,.61.26,4.92,4.92,0,0,1,.61.29,10.52,10.52,0,0,1,2.16,1.64,18.74,18.74,0,0,1,3.27,4.9A49.54,49.54,0,0,1,198.49,98,1.72,1.72,0,0,1,198.58,98.76Z" transform="translate(-60.97 -3.02)"/><path class="cls-11" d="M198.58,98.76a1.54,1.54,0,0,1-.52.76c-1.5,1.53-3,3-4.55,4.54q-6.75,6.59-13.92,12.77c-4.4,3.78-8.34,8.22-12.72,12.08a48.46,48.46,0,0,1-5.3,4l-6.77,4.67q-8,5.61-15.87,11.4c-2.64,1.92-5.26,3.87-7.85,5.82-2.22,1.64-3.74,3.9-5.8,5.66a48.35,48.35,0,0,0-5.59,6.5c-1.8,2.21-3.88,4.37-6.56,5.4a3.61,3.61,0,0,1-1.78.33,1.85,1.85,0,0,1-1.1-.46c10.57-9.6,18.87-21.91,30.37-30.53,7.75-5.82,16.89-9.83,23.78-16.7,2.27-2.23,4.23-4.68,2.63-7.93-.86-1.69-2.24-3-3.26-4.61a1.81,1.81,0,0,1-.36-.8.71.71,0,0,1,.39-.75,1,1,0,0,1,.54,0,5.31,5.31,0,0,1,2.9,2.44,10.46,10.46,0,0,0,2.51,2.93,4.12,4.12,0,0,0,1.67.64c3.17.48,4.64-3.25,6.06-5.36q3.08-4.68,6.09-9.38c.66-1,1.32-2.28.93-3.42a4.81,4.81,0,0,0-1.93-2,16.48,16.48,0,0,1-5.22-6.35c2.09-3.61,4.59-8.63,9.31-8.35a7.15,7.15,0,0,1,1.82.35,3,3,0,0,1,.61.26,4.92,4.92,0,0,1,.61.29,10.52,10.52,0,0,1,2.16,1.64,18.74,18.74,0,0,1,3.27,4.9A49.54,49.54,0,0,1,198.49,98,1.72,1.72,0,0,1,198.58,98.76Z" transform="translate(-60.97 -3.02)"/><path class="cls-32" d="M205.73,82.28c-.27,1.49-.58,3-.91,4.43-.6,2.77-1.29,5.52-2,8.24a7,7,0,0,1-1.52,3.32,3.82,3.82,0,0,1-1.84,1,15.94,15.94,0,0,1-8.74-.28,15.17,15.17,0,0,1-2.9-1.17,19,19,0,0,1-9.41-11.19,2.1,2.1,0,0,1-.14-.87,2.12,2.12,0,0,1,.23-.8c.45-1,.94-1.92,1.47-2.83.31-.5.64-1,1-1.5a30.41,30.41,0,0,1,4.61-5.38s.09-.07.12-.12c2.66-2.43,6.26-4.69,10-4.81.7,0,1.43,0,2.15,0,2.6.12,5.28.64,7,2.76C206.72,75.58,206.31,79.15,205.73,82.28Z" transform="translate(-60.97 -3.02)"/><path class="cls-33" d="M201.26,98.27a3.82,3.82,0,0,1-1.84,1,16.65,16.65,0,0,1-11.64-1.45,19,19,0,0,1-9.41-11.19,2.1,2.1,0,0,1-.14-.87,2.12,2.12,0,0,1,.23-.8c.45-1,.94-1.92,1.47-2.83.31-.5.64-1,1-1.5a.74.74,0,0,0,0,.18,21.25,21.25,0,0,0,1.06,3.8,16.87,16.87,0,0,0,4.84,6.69,14.71,14.71,0,0,0,3.94,2.32c2.93,1.12,6.17,1.25,9.13,2.37a2.07,2.07,0,0,1,1,.63,2.23,2.23,0,0,1,.37,1.27A1.45,1.45,0,0,1,201.26,98.27Z" transform="translate(-60.97 -3.02)"/><g class="cls-34"><path class="cls-35" d="M204.82,86.71c-.6,2.77-1.29,5.52-2,8.24a7,7,0,0,1-1.52,3.32,3.82,3.82,0,0,1-1.84,1,15.94,15.94,0,0,1-8.74-.28,10,10,0,0,0,1.08-2.65A18.55,18.55,0,0,0,191.54,86c-.11-.4-.26-.78-.39-1.14a22.63,22.63,0,0,0-1.53-3.08c-.77-1.21-1.68-2.32-2.5-3.52a12.8,12.8,0,0,1-1.62-3s.09-.07.12-.12c2.66-2.43,6.26-4.69,10-4.81.7,0,1.43,0,2.15,0,.08,0,.12.1.19.13a14.58,14.58,0,0,1,3.2,3.54,23.89,23.89,0,0,1,3.63,11.63C204.82,86,204.82,86.35,204.82,86.71Z" transform="translate(-60.97 -3.02)"/></g><path class="cls-36" d="M215.45,3.73a24,24,0,0,1,6.3,3c7.81,5.08,12.51,13.87,15.21,22.56s4,18.31,9.89,25.62c5.12,6.42,13,9.9,19.32,15.14a43.41,43.41,0,0,1,15,38.57c-2.43-3.69-5.12-7.32-7.34-11.14-1.83-3.18-4.67-5.63-7.38-8.13-5.65-5.19-12.16-11.19-19.07-14.65-7.73-4.9-16-9-23.61-14s-14.89-11-19.66-18.84a34.63,34.63,0,0,1-4.29-11.92c-1.08-5.5-2.75-11.36-1.68-17,1.15-6,6.25-9.81,12.27-9.89A17.33,17.33,0,0,1,215.45,3.73Z" transform="translate(-60.97 -3.02)"/><g class="cls-34"><path class="cls-36" d="M218.5,13.5C223.85,17.89,227,24.43,229.24,31s3.89,13.36,7.06,19.52c4,7.88,10.31,14.26,15.55,21.31a52.84,52.84,0,0,1,6.62,11.26c.7,1.72,1.75,3.3,1.25,5.18-.56,2.12-2.1,4.32-3.27,6.15a1.68,1.68,0,0,1-2.56.73c-4-1.67-7-4.86-10-8-7.08-7.45-14.07-15-21.71-21.87-6.08-5.47-12.78-10.78-16.06-18.27-2.79-6.39-2.73-13.49-3.3-20.31a56.69,56.69,0,0,0-1.74-10.19c-.54-2-2.62-5.26.16-6.51,3.52-1.59,8-1.1,11.5.2A19.8,19.8,0,0,1,218.5,13.5Z" transform="translate(-60.97 -3.02)"/></g><path class="cls-8" d="M278.05,299.05c-1.13,1.49-2.75,2.57-4,4-3.28,3.75-3.46,9.37-6.34,13.45s-7.9,5.9-12.8,6.39a22.65,22.65,0,0,1-7.52-.39,15.23,15.23,0,0,1-2.8-.82c-1.26-.51-2.79-1-3.64-2.15a5.79,5.79,0,0,1-.49-5.19,28.31,28.31,0,0,1,2.87-4.05c2.31-3,5.11-5.62,7.52-8.55A50.53,50.53,0,0,0,257.72,291c.9-1.93,1.72-3.93,2.44-5.93.93-2.62,2.18-5.75,4.78-7.14,3.13-1.66,7.23-.69,9.9,1.7a10.65,10.65,0,0,1,1,.95,18,18,0,0,1,3.8,8.41C280.23,292.38,280.15,296.26,278.05,299.05Z" transform="translate(-60.97 -3.02)"/><path class="cls-9" d="M278.05,299.05c-1.13,1.49-2.75,2.57-4,4-3.28,3.75-3.46,9.37-6.34,13.45s-7.9,5.9-12.8,6.39a22.65,22.65,0,0,1-7.52-.39c.64-.23,1.31-.48,2-.74,6-2.44,12.19-5.78,15.19-11.52,1.95-3.75,2.34-8.16,4.29-11.94,1-2,2.43-3.74,3.56-5.69a13.74,13.74,0,0,0,1.77-6.75,8.23,8.23,0,0,1,1.62-5.31,18,18,0,0,1,3.8,8.41C280.23,292.38,280.15,296.26,278.05,299.05Z" transform="translate(-60.97 -3.02)"/><path class="cls-10" d="M301.94,190.54a98,98,0,0,1-6.75,12.57q-2.43,3.85-4.82,7.75c-1.54,2.46-3.08,4.93-4.75,7.31-2.16,3.06-4.42,6.21-6.9,9.16,1.18,8.6,4.59,17,4.28,25.66a56.75,56.75,0,0,1-1.87,11.35c-1.08,4.46-2.21,8.87-3.42,13.29-.74,2.82-1.36,6.26-3.25,8.57a6.65,6.65,0,0,1-2.7,2,8.06,8.06,0,0,1-2.59.59,11.19,11.19,0,0,1-4.54-.51c-1.44-.51-3.8-1.92-3.62-3.72.33-3.18-2-32.95-2.64-35.92a94.26,94.26,0,0,0-3.31-13.19c-.75-2-1.85-3.65-2.08-5.8a23.79,23.79,0,0,1,.49-6.62q1.38-7.71,3.41-15.27a184,184,0,0,1,8.18-23.79c.36-.85.75-1.67,1.11-2.51,2.72-6.14,6.41-11.42,12.31-14.89a20.83,20.83,0,0,1,12.27-3,13.58,13.58,0,0,1,10.52,6.44c1.16,2.1,1.46,4.52,2.41,6.67C305.74,181.32,303.84,186.15,301.94,190.54Z" transform="translate(-60.97 -3.02)"/><path class="cls-11" d="M301.94,190.54a98,98,0,0,1-6.75,12.57q-2.43,3.85-4.82,7.75c-1.54,2.46-3.08,4.93-4.75,7.31-2.16,3.06-4.42,6.21-6.9,9.16,1.18,8.6,4.59,17,4.28,25.66a56.75,56.75,0,0,1-1.87,11.35c-1.08,4.46-2.21,8.87-3.42,13.29-.74,2.82-1.36,6.26-3.25,8.57q-1.81-12.9-3.6-25.79c-.92-6.57-1.84-13.14-2.56-19.71-1.47-13.5,6.44-25.53,11.93-37.44.92-2,3.1-6.08,2.26-8.36a4.19,4.19,0,0,0-2.21-2.08c-1.74-.85-4-1.31-5.36-1.9a25.51,25.51,0,0,1-9.86-7c.36-.85.75-1.67,1.11-2.51,2.72-6.14,6.41-11.42,12.31-14.89a20.83,20.83,0,0,1,12.27-3,13.58,13.58,0,0,1,10.52,6.44c1.16,2.1,1.46,4.52,2.41,6.67C305.74,181.32,303.84,186.15,301.94,190.54Z" transform="translate(-60.97 -3.02)"/><path class="cls-8" d="M318.9,145.32c.05,7-2.26,14.29-4.11,20.91a59.74,59.74,0,0,1-6.26,15.17,14.56,14.56,0,0,1-3.44,4.18,13.08,13.08,0,0,1-3.33,1.7,32.14,32.14,0,0,1-7,1.82c-.92.15-1.84.25-2.77.33a34.2,34.2,0,0,1-3.92,0c-.9,0-1.8-.11-2.67-.21a32.55,32.55,0,0,1-5.49-1.1,25.84,25.84,0,0,1-2.65-.9,21.67,21.67,0,0,1-8.75-5.9,5.92,5.92,0,0,1-1.38-2.41,7,7,0,0,1,.89-4.19c1-2.18,2-4.36,3-6.57.95-2.05,1.9-4.28,1.41-6.49a10.68,10.68,0,0,0-2.43-4.23L260.7,146c-1.72-2.13-5.64-5.36-4.69-8.44.53-1.77,2.28-3.29,3.41-4.67l4.34-5.19,9.31-11.21a11.87,11.87,0,0,1,1-1.1c1.23-1.34,2.51-2.65,2.49-4.52,0-.67.23-5,.1-7,0-.56-.1-.94-.23-1,.2.11.38.18.59.29a175.21,175.21,0,0,1,20.09,11.42c5.75,3.79,11.32,8,15.52,13.44a35.35,35.35,0,0,1,3.52,5.57A28.09,28.09,0,0,1,318.9,145.32Z" transform="translate(-60.97 -3.02)"/><path class="cls-9" d="M318.9,145.32c.05,7-2.26,14.29-4.11,20.91a59.74,59.74,0,0,1-6.26,15.17,14.56,14.56,0,0,1-3.44,4.18,13.08,13.08,0,0,1-3.33,1.7,32.14,32.14,0,0,1-7,1.82c-.92.15-1.84.25-2.77.33a34.2,34.2,0,0,1-3.92,0c-.9,0-1.8-.11-2.67-.21a32.55,32.55,0,0,1-5.49-1.1,25.84,25.84,0,0,1-2.65-.9,105.69,105.69,0,0,0,8.29-29.41,35,35,0,0,0-2.21-17.24c-2.36-6-6.33-11.27-8.23-17.42a24.63,24.63,0,0,1-1-7.8,28.24,28.24,0,0,1,2.59-11.48c.13-.25.23-.48.36-.71a175.21,175.21,0,0,1,20.09,11.42c5.75,3.79,11.32,8,15.52,13.44a35.35,35.35,0,0,1,3.52,5.57A28.09,28.09,0,0,1,318.9,145.32Z" transform="translate(-60.97 -3.02)"/><path class="cls-37" d="M297,147.12c.08,6.23-1.15,12.31-2.64,19-1.72,7.82-3.85,15.63-6.31,23.3-.9,0-1.8-.11-2.67-.21,2.56-7.77,4.72-15.7,6.49-23.66,1.44-6.57,2.64-12.47,2.57-18.42-.08-6.72-3.7-13.17-5.83-16.42a54.61,54.61,0,0,0-13.06-13.37l1.51-2.06a56.58,56.58,0,0,1,13.68,14C293.06,132.82,296.91,139.75,297,147.12Z" transform="translate(-60.97 -3.02)"/><path class="cls-38" d="M303.84,143.7c.2,6.24-.93,12.35-2.29,19.1a246.44,246.44,0,0,1-6.8,26.3c-.92.15-1.84.25-2.77.33A250.1,250.1,0,0,0,299,162.28c1.33-6.59,2.44-12.55,2.23-18.47-.2-6.73-3.92-13.12-6.13-16.3a54.77,54.77,0,0,0-13.32-13.14l1.49-2.07a56.07,56.07,0,0,1,13.93,13.75C299.6,129.49,303.61,136.34,303.84,143.7Z" transform="translate(-60.97 -3.02)"/><path class="cls-32" d="M282.59,123.53c-.23.65-.51,1.29-.77,1.88-1.69,3.82-4.8,6.77-7.65,9.75-5.54,5.82-14.29,8.67-22.22,9a36.92,36.92,0,0,1-5.46-.18,15.35,15.35,0,0,1-5-1.8,12.34,12.34,0,0,1-1.2-.62,102,102,0,0,1-9.27-5.13,175.82,175.82,0,0,1-19.24-13.88c-3.47-2.85-7-5.85-9.11-9.8-2.26-4.13-2.88-8.93-3.47-13.6-.51-4.24-1.05-8.47-1.56-12.68q-.69-5.66-1.39-11.29c-.23-1.87-.95-4.49-.36-6.34.54-1.69,1.9-3.44,2.65-5,1.56-3.36,3.1-7,6.21-9.22a10.91,10.91,0,0,1,3.79-1.71,15.46,15.46,0,0,1,6.06-.31,35.75,35.75,0,0,1,9.75,3.15c2.59,1.13,5.16,2.34,7.73,3.57,1.92.92,3.84,1.9,5.77,2.9,3.28,1.72,15.68,10.09,18.55,12.68a117.72,117.72,0,0,1,15.35,16.68q3.42,4.5,6.41,9.31c2.34,3.7,5.11,6.49,6,10.91C285,115.43,284,119.87,282.59,123.53Z" transform="translate(-60.97 -3.02)"/><g class="cls-34"><path class="cls-35" d="M282.59,123.53c-.23.65-.51,1.29-.77,1.88-1.69,3.82-4.8,6.77-7.65,9.75-5.54,5.82-14.29,8.67-22.22,9a36.92,36.92,0,0,1-5.46-.18,15.35,15.35,0,0,1-5-1.8,12.34,12.34,0,0,1-1.2-.62c-3.47-11.49-6.14-23.47-5.08-35.41a32.84,32.84,0,0,1,2.66-9.88,50,50,0,0,1,6.55-10.8,17.19,17.19,0,0,1,3.15-3.28c1.16-.85,2.88-2.13,4.37-1.9,1.77.23,2.05,1.79,3.31,2.72a29.07,29.07,0,0,0,4,1.84,30.45,30.45,0,0,1,6.41,4.24,39.66,39.66,0,0,1,7,8.36A67.09,67.09,0,0,1,282.59,123.53Z" transform="translate(-60.97 -3.02)"/></g><path class="cls-37" d="M233.19,72.44a19,19,0,0,1-5.51,8.73,17.15,17.15,0,0,1-11.12,4.26,14.63,14.63,0,0,1-1.89-.13,9.88,9.88,0,0,1-4-1.28,7.61,7.61,0,0,1-3.16-3.83,17.23,17.23,0,0,1-.77-6.64,17.62,17.62,0,0,1,.21-2,19.54,19.54,0,0,0,.18-2,29.11,29.11,0,0,0-.72-5.21,29.09,29.09,0,0,1-.77-5.7,4.39,4.39,0,0,1,1.28-3.08,6.72,6.72,0,0,0,.64-.85,20,20,0,0,0,1-1.89,15.46,15.46,0,0,1,6.06-.31,35.75,35.75,0,0,1,9.75,3.15c2.59,1.13,5.16,2.34,7.73,3.57a7.72,7.72,0,0,1,1.25,2.08C235.07,65.11,234.09,69.49,233.19,72.44Z" transform="translate(-60.97 -3.02)"/><path class="cls-10" d="M232,72.06a17.66,17.66,0,0,1-5.13,8.13,15.72,15.72,0,0,1-7.31,3.65,14.53,14.53,0,0,1-4.7.18,8.49,8.49,0,0,1-3.46-1.11,6.1,6.1,0,0,1-2.62-3.18,15.3,15.3,0,0,1-.69-6.16c0-1.33.41-2.66.38-4-.05-3.67-1.46-7.24-1.49-10.9,0-1.49,1-2,1.75-3.24a25.38,25.38,0,0,0,2-4.21A27.91,27.91,0,0,0,212,46.71c.1-.64.92-4.21.41-4.65A40,40,0,0,1,217,46.73c3.67,4.19,7,8.78,11.7,11.58,1.82,1,2.64,1.61,3.54,3.59C233.63,65.05,232.94,68.88,232,72.06Z" transform="translate(-60.97 -3.02)"/><path class="cls-11" d="M232,72.06a17.66,17.66,0,0,1-5.13,8.13,15.72,15.72,0,0,1-7.31,3.65,22.54,22.54,0,0,0,3-11.24A22.91,22.91,0,0,0,216.31,57l-.31-1.7a3.83,3.83,0,0,1-1.33-3,7.37,7.37,0,0,1,.79-3.23A10.11,10.11,0,0,1,217,46.73c3.67,4.19,7,8.78,11.7,11.58,1.82,1,2.64,1.61,3.54,3.59C233.63,65.05,232.94,68.88,232,72.06Z" transform="translate(-60.97 -3.02)"/><path class="cls-10" d="M221.9,49.27a9.44,9.44,0,0,1-4,7.32,9.41,9.41,0,0,0-1.46,1.18c-.46.51-1,.82-1.18,1.54a13.2,13.2,0,0,0-.18,1.54,9.3,9.3,0,0,1-2,4.26,48.62,48.62,0,0,1-9.34,9.72c-2.18,1.7-4.7,3.26-7.47,3.31a4.35,4.35,0,0,1-.51,0,3.83,3.83,0,0,1-2.69-1.18,4.44,4.44,0,0,0-1.77-1.54,4.39,4.39,0,0,1-2-1.06c-.28-.36-.41-.84-.79-1.1a6.41,6.41,0,0,0-.7-.21,1.83,1.83,0,0,1-1.3-1.61c-.06-.54.12-1.18-.23-1.59a1.18,1.18,0,0,0-1.26-.26c-.41.13-.8.39-1.21.54a3.11,3.11,0,0,1-2.36,0,1.49,1.49,0,0,1-.79-.69,2,2,0,0,1-.16-1c.08-3.26.67-6.37,0-9.6-.49-2.59-3.34-4.41-4.42-6.83a12.83,12.83,0,0,1-.89-3.56,76,76,0,0,1-.8-10c0-2.61.1-4.95,2.39-6.69A11,11,0,0,1,181,29.9a23.89,23.89,0,0,1,11.73-.13,19.09,19.09,0,0,1,6.18,2.8A16.42,16.42,0,0,1,202.63,36c1.21,1.51,2.23,3.28,3.88,4.31,3.23,2,7.64.51,11.13,2.07A7.59,7.59,0,0,1,221.9,49.27Z" transform="translate(-60.97 -3.02)"/><path class="cls-11" d="M221.9,49.27a9.44,9.44,0,0,1-4,7.32,9.41,9.41,0,0,0-1.46,1.18c-.46.51-1,.82-1.18,1.54a13.2,13.2,0,0,0-.18,1.54,9.3,9.3,0,0,1-2,4.26,48.62,48.62,0,0,1-9.34,9.72c-2.18,1.7-4.7,3.26-7.47,3.31a4.35,4.35,0,0,1-.51,0,26.84,26.84,0,0,0,2.69-3.85A18.39,18.39,0,0,0,201,61.92c-.69-4-3-7.44-4.67-11.08a21.11,21.11,0,0,1-1.82-5.6,11.9,11.9,0,0,1,.2-5c.34-1.36.23-2.65.87-4a9.28,9.28,0,0,1,3.34-3.72A16.42,16.42,0,0,1,202.63,36c1.21,1.51,2.23,3.28,3.88,4.31,3.23,2,7.64.51,11.13,2.07A7.59,7.59,0,0,1,221.9,49.27Z" transform="translate(-60.97 -3.02)"/><path class="cls-36" d="M224.73,37.85a35.48,35.48,0,0,1-.6,6.44c-.12.67-.23,1.31-.41,2a26.76,26.76,0,0,1-1.12,3.19c-.26.64-.93,1.31-.93,2,0-.46,0-.92-.08-1.39a9.83,9.83,0,0,0-.94-3.85,4.4,4.4,0,0,0-1.75-2c-2.87-1.59-4.9,2.46-5.7,4.59a24.61,24.61,0,0,0-1.48,10c-2.47-4.39-5.11-9-9.47-11.5-1.88-1.08-4.14-1.82-5.29-3.67-.62-1-.85-2.21-1.64-3a2.89,2.89,0,0,0-.62-.47,5.63,5.63,0,0,0-1.51-.61,12.09,12.09,0,0,0-6.06-.13c-2.08.49-4,1.51-6.08,2a7.39,7.39,0,0,1-4-.23,3.56,3.56,0,0,1-1.79-1.36c-1.23-1.72-1.06-4.16-.77-6.14a25.16,25.16,0,0,1,5.87-13,27.06,27.06,0,0,1,11-7.67c5.15-1.92,11.52-2.51,16.68-.36a38.4,38.4,0,0,1,5.87,3,21.35,21.35,0,0,1,6.37,5.9,24.48,24.48,0,0,1,2.41,4.52A30.05,30.05,0,0,1,224.73,37.85Z" transform="translate(-60.97 -3.02)"/><g class="cls-34"><path class="cls-36" d="M224.73,37.85a35.48,35.48,0,0,1-.6,6.44c-.12.67-.23,1.31-.41,2a26.76,26.76,0,0,1-1.12,3.19c-.26.64-.93,1.31-.93,2,0-.46,0-.92-.08-1.39a9.83,9.83,0,0,0-.94-3.85,4.4,4.4,0,0,0-1.75-2c-2.87-1.59-4.9,2.46-5.7,4.59a24.61,24.61,0,0,0-1.48,10c-2.47-4.39-5.11-9-9.47-11.5-1.88-1.08-4.14-1.82-5.29-3.67-.62-1-.85-2.21-1.64-3a2.89,2.89,0,0,0-.62-.47c.54-.07,1.08-.15,1.59-.25a22.54,22.54,0,0,0,9.22-4.67,23.68,23.68,0,0,0,4-4.36,26,26,0,0,0,4.46-15.22,21.35,21.35,0,0,1,6.37,5.9,24.48,24.48,0,0,1,2.41,4.52A30.05,30.05,0,0,1,224.73,37.85Z" transform="translate(-60.97 -3.02)"/></g><path class="cls-10" d="M275.5,127.39c.46,4.65.79,9.34,1.13,14,.26,3.85,1.26,20.08,1.57,21.88a10,10,0,0,1-.8,5.44,9.09,9.09,0,0,1-1.84,2.61c-3.26,3.27-7,6-10.56,9a288.86,288.86,0,0,1-37.84,26.86c-1.53.9-3,1.57-4,3.1a19.42,19.42,0,0,1-2.31,3.7c-2.08,2.1-5.09,2.89-7.95,3.63s-5.87,1.71-7.73,4c-1,1.19-1.66,2.8-3.12,3.33s-3.25-.38-4.45-1.58a2.57,2.57,0,0,1-.29-.28,5.6,5.6,0,0,0-1.37-1.16c-.69-.33-1.48-.29-2.12-.66s-1.12-1.16-1.87-1.41c-.37-.11-.78-.06-1.13-.2-1.48-.5-1.16-2.84-2.35-3.81a3.37,3.37,0,0,1-.57-.48,1.47,1.47,0,0,1-.3-1,6.75,6.75,0,0,1,1.45-3.35,38.21,38.21,0,0,1,6.3-7.62,3.77,3.77,0,0,1,.94-.63,4.08,4.08,0,0,1,1.54-.25c1.75-.1,3.49-.25,5.19-.45s3.28-.48,4.89-.84a11.06,11.06,0,0,0,3.55-1.06c1.15-.75,2.27-1.79,3.39-2.64,2.44-1.86,4.86-3.74,7.25-5.67a217.65,217.65,0,0,0,23-21.1c2.09-2.25,4.07-4.62,6-7,1-1.17,1.94-2.37,2.92-3.54,2.06-2.49.73-7.53.45-10.46q-.6-6.18-1.19-12.32c-.2-1.91-.39-3.8-.56-5.72q-.25-2.57-.54-5.13c-.14-1.2-.3-2.37-.47-3.56-.27-1.93-.83-3.86-1-5.78-.3-4.41,1.33-9,5.06-11.61a10.82,10.82,0,0,1,12.88.52,16,16,0,0,1,4.28,7.39A66.86,66.86,0,0,1,275.5,127.39Z" transform="translate(-60.97 -3.02)"/><path class="cls-11" d="M275.5,127.39c.46,4.65.79,9.34,1.13,14,.26,3.85,1.26,20.08,1.57,21.88a10,10,0,0,1-.8,5.44,9.09,9.09,0,0,1-1.84,2.61c-3.26,3.27-7,6-10.56,9a288.86,288.86,0,0,1-37.84,26.86c-1.53.9-3,1.57-4,3.1a19.42,19.42,0,0,1-2.31,3.7c-2.08,2.1-5.09,2.89-7.95,3.63s-5.87,1.71-7.73,4c-1,1.19-1.66,2.8-3.12,3.33s-3.25-.38-4.45-1.58c22.09-18.08,48.14-31.44,68.79-51.24A8.39,8.39,0,0,0,269,168c.26-1.56-.79-2.86-2-3.75a16.38,16.38,0,0,0-4.63-2.28,10.79,10.79,0,0,1-3.54-1.58c-.11-.09-.23-.21-.19-.34s.11-.17.18-.23c1.11-.67,2.53-.21,3.78.13a18.73,18.73,0,0,0,7.6.47,5.78,5.78,0,0,0,2.19-.72c2.06-1.37,1.3-4.62,1.14-6.64-.18-3-.52-5.91-1-8.85a102.06,102.06,0,0,0-4.32-17,2.91,2.91,0,0,0-1.35-1.88,3.16,3.16,0,0,0-2.43.41,18.77,18.77,0,0,1-12.2.84c-.14-1.2-.3-2.37-.47-3.56-.27-1.93-.83-3.86-1-5.78-.3-4.41,1.33-9,5.06-11.61a10.82,10.82,0,0,1,12.88.52,16,16,0,0,1,4.28,7.39A66.86,66.86,0,0,1,275.5,127.39Z" transform="translate(-60.97 -3.02)"/><path class="cls-32" d="M278,115.09a33.22,33.22,0,0,1-27.42,8.77,5.74,5.74,0,0,1-2.23-.67c-1.25-.79-1.76-2.33-2.16-3.76-.05-.22-.13-.47-.19-.7a68.74,68.74,0,0,1-2.49-17.1c0-5.41,1.38-17.2,6.58-21.6,2.11-1.82,4.89-2.4,8.43-.79A22.28,22.28,0,0,1,266,84.6a43.69,43.69,0,0,1,3.31,4.32,54.77,54.77,0,0,1,5.35,10.34,70,70,0,0,1,2.68,8.19c.18.67.33,1.33.52,2s.29,1.47.46,2.2C278.55,112.86,279.06,114.12,278,115.09Z" transform="translate(-60.97 -3.02)"/><path class="cls-33" d="M278,115.09a33.19,33.19,0,0,1-27.42,8.77,5.74,5.74,0,0,1-2.23-.67c-1.25-.79-1.76-2.33-2.16-3.76-.05-.22-.13-.47-.19-.7a22.34,22.34,0,0,0,9.22.41,44.93,44.93,0,0,0,15.55-4.74,34.45,34.45,0,0,0,7.05-5c.16.73.29,1.47.46,2.2C278.55,112.86,279.06,114.12,278,115.09Z" transform="translate(-60.97 -3.02)"/><g class="cls-34"><path class="cls-37" d="M278,115.09c-.42.41-.84.79-1.29,1.15a15.27,15.27,0,0,1-1.32,1.09c-.47.36-.92.7-1.4,1s-.84.56-1.28.85c-.65.38-1.3.77-2,1.13l-1.22.6c-.51.24-1.05.49-1.57.7s-1.06.43-1.61.62a2.64,2.64,0,0,0,0-.28,44.09,44.09,0,0,0-.14-5.51,36.22,36.22,0,0,0,11.59-7c.16.73.29,1.47.46,2.2C278.55,112.86,279.06,114.12,278,115.09Z" transform="translate(-60.97 -3.02)"/></g><g class="cls-34"><path class="cls-35" d="M277.85,109.45a36.22,36.22,0,0,1-11.59,7,93.45,93.45,0,0,0-2.81-14.87,52.57,52.57,0,0,0-4.62-13A23.64,23.64,0,0,0,250.12,80c2.11-1.82,4.89-2.4,8.43-.79A22.28,22.28,0,0,1,266,84.6a43.69,43.69,0,0,1,3.31,4.32,54.77,54.77,0,0,1,5.35,10.34,70,70,0,0,1,2.68,8.19C277.51,108.12,277.66,108.78,277.85,109.45Z" transform="translate(-60.97 -3.02)"/></g></g></g></svg>